<svg width="34" height="38" viewBox="0 0 34 38" fill="none" xmlns="http://www.w3.org/2000/svg">
<path d="M24.1037 24.9166L18.1764 28.346L0.0283203 17.9227L5.95567 14.4934L24.1037 24.9166Z" fill="#FFC32C"/>
<path d="M5.96736 5.78833V14.4929L0.0400391 17.9222V14.0712C0.0405136 12.5654 0.442518 11.087 1.20472 9.78838C1.96692 8.48976 3.06169 7.41796 4.37612 6.68346L5.96736 5.78833Z" fill="#E0A728"/>
<path d="M24.1041 24.9165V33.6211L18.1768 37.0504V28.3458L24.1041 24.9165Z" fill="#E0A728"/>
<path d="M15.0849 30.2117V37.1062L4.20885 30.8045C2.92979 30.0595 1.86815 28.9924 1.12972 27.7095C0.391282 26.4266 0.00179 24.9726 0 23.4923V21.531L15.0849 30.2117Z" fill="#FFC32C"/>
<path d="M9.07812 12.7627L15.0095 9.32935L33.1535 19.7566L27.2262 23.1859L9.07812 12.7627Z" fill="#FFC32C"/>
<path d="M27.2266 31.8906V23.182L33.154 19.7527V23.6037C33.1539 25.1086 32.7528 26.5864 31.9921 27.8848C31.2314 29.1833 30.1384 30.2556 28.8258 30.9915L27.2266 31.8906Z" fill="#E0A728"/>
<path d="M9.07812 12.763V4.03846L15.0095 0.716553V9.32964L9.07812 12.763Z" fill="#E0A728"/>
<path d="M18.1006 7.46726V0.556885L28.9727 6.85856C30.2574 7.60261 31.3238 8.67128 32.0653 9.95743C32.8068 11.2436 33.1972 12.7021 33.1974 14.1867V16.148L18.1006 7.46726Z" fill="#FFC32C"/>
</svg>
