<svg viewBox="0 0 16 16" fill="none" xmlns="http://www.w3.org/2000/svg">
    <g clip-path="url(#clip0_2002_677)">
        <path d="M8.08001 8.52C8.03334 8.51333 7.97334 8.51333 7.92001 8.52C6.74668 8.48 5.81332 7.52 5.81332 6.33999C5.81332 5.13332 6.78668 4.15332 8.00001 4.15332C9.20668 4.15332 10.1867 5.13332 10.1867 6.33999C10.18 7.52 9.25334 8.48 8.08001 8.52Z" stroke="#292D32" stroke-width="1.3" stroke-linecap="round" stroke-linejoin="round"/>
        <path d="M12.4933 12.92C11.3067 14.0067 9.73334 14.6667 8.00001 14.6667C6.26668 14.6667 4.69335 14.0067 3.50668 12.92C3.57335 12.2934 3.97335 11.68 4.68668 11.2C6.51335 9.98671 9.50001 9.98671 11.3133 11.2C12.0267 11.68 12.4267 12.2934 12.4933 12.92Z" stroke="#292D32" stroke-width="1.3" stroke-linecap="round" stroke-linejoin="round"/>
        <path d="M8.00001 14.6666C11.6819 14.6666 14.6667 11.6818 14.6667 7.99992C14.6667 4.31802 11.6819 1.33325 8.00001 1.33325C4.31811 1.33325 1.33334 4.31802 1.33334 7.99992C1.33334 11.6818 4.31811 14.6666 8.00001 14.6666Z" stroke="#292D32" stroke-width="1.3" stroke-linecap="round" stroke-linejoin="round"/>
    </g>
    <defs>
        <clipPath id="clip0_2002_677">
            <rect width="16" height="16" fill="white"/>
        </clipPath>
    </defs>
</svg>
