<svg width="36" height="36" viewBox="0 0 36 36" fill="none" xmlns="http://www.w3.org/2000/svg">
<path d="M18 34.7143C25.811 34.7143 32.1429 28.3824 32.1429 20.5714C32.1429 12.7606 25.811 6.42859 18 6.42859C10.1891 6.42859 3.85718 12.7606 3.85718 20.5714C3.85718 28.3824 10.1891 34.7143 18 34.7143Z" fill="#FFC32C"/>
<path d="M18 34.7143C25.811 34.7143 32.1429 28.3824 32.1429 20.5714C32.1429 12.7606 25.811 6.42859 18 6.42859C10.1891 6.42859 3.85718 12.7606 3.85718 20.5714C3.85718 28.3824 10.1891 34.7143 18 34.7143Z" stroke="#0F0F0F" stroke-width="1.5" stroke-linecap="round" stroke-linejoin="round"/>
<path d="M1.28564 6.42862C3.09151 4.33098 5.27133 2.58712 7.71422 1.28577" stroke="#0F0F0F" stroke-width="1.5" stroke-linecap="round" stroke-linejoin="round"/>
<path d="M34.7142 6.42862C32.9083 4.33098 30.7285 2.58712 28.2856 1.28577" stroke="#0F0F0F" stroke-width="1.5" stroke-linecap="round" stroke-linejoin="round"/>
<path d="M18 12.8572V20.5715H24.4286" stroke="#0F0F0F" stroke-width="1.5" stroke-linecap="round" stroke-linejoin="round"/>
</svg>
