<svg width="36" height="36" viewBox="0 0 36 36" fill="none" xmlns="http://www.w3.org/2000/svg">
<path d="M5.14289 10.2858H25.7143C26.0553 10.2858 26.3824 10.4212 26.6236 10.6624C26.8645 10.9034 27 11.2305 27 11.5715V23.1429C27 24.5069 26.4582 25.8149 25.4937 26.7794C24.5293 27.744 23.2211 28.2858 21.8572 28.2858H9.00003C7.63607 28.2858 6.32796 27.744 5.36349 26.7794C4.399 25.8149 3.85718 24.5069 3.85718 23.1429V11.5715C3.85718 11.2305 3.99264 10.9034 4.23376 10.6624C4.47486 10.4212 4.80189 10.2858 5.14289 10.2858Z" fill="#FFC32C"/>
<path d="M27 10.2858H5.14289C4.80189 10.2858 4.47486 10.4212 4.23376 10.6624C3.99264 10.9034 3.85718 11.2305 3.85718 11.5715V23.1429C3.85718 24.5069 4.399 25.8149 5.36349 26.7794C6.32796 27.744 7.63607 28.2858 9.00003 28.2858H21.8572C23.2211 28.2858 24.5293 27.744 25.4937 26.7794C26.4582 25.8149 27 24.5069 27 23.1429V10.2858Z" stroke="#0F0F0F" stroke-width="1.5" stroke-linecap="round" stroke-linejoin="round"/>
<path d="M1.28564 34.7144H34.7142" stroke="#0F0F0F" stroke-width="1.5" stroke-linecap="round" stroke-linejoin="round"/>
<path d="M27 10.2858H29.5714C30.9353 10.2858 32.2434 10.8276 33.2079 11.7921C34.1725 12.7566 34.7143 14.0647 34.7143 15.4286C34.7143 16.7926 34.1725 18.1007 33.2079 19.0652C32.2434 20.0297 30.9353 20.5715 29.5714 20.5715H27" stroke="#0F0F0F" stroke-width="1.5" stroke-linecap="round" stroke-linejoin="round"/>
<path d="M7.71411 1.28577V3.8572" stroke="#0F0F0F" stroke-width="1.5" stroke-linecap="round" stroke-linejoin="round"/>
<path d="M20.5713 1.28577V3.8572" stroke="#0F0F0F" stroke-width="1.5" stroke-linecap="round" stroke-linejoin="round"/>
<path d="M14.1428 1.28577V3.8572" stroke="#0F0F0F" stroke-width="1.5" stroke-linecap="round" stroke-linejoin="round"/>
</svg>
