<svg width="30" height="32" viewBox="0 0 30 32" fill="none" xmlns="http://www.w3.org/2000/svg">
<path d="M15.0004 20.5714C20.3428 20.5714 24.6737 16.2405 24.6737 10.8981C24.6737 5.55571 20.3428 1.22485 15.0004 1.22485C9.65801 1.22485 5.32715 5.55571 5.32715 10.8981C5.32715 16.2405 9.65801 20.5714 15.0004 20.5714Z" fill="#E3E2DF"/>
<path d="M29.126 30.8571C28.1662 27.8647 26.2812 25.2544 23.7427 23.4025C21.2039 21.5506 18.1426 20.5527 15.0002 20.5527C11.8578 20.5527 8.79657 21.5506 6.25785 23.4025C3.71916 25.2544 1.8341 27.8647 0.874512 30.8571H29.126Z" fill="#FFC32C"/>
<path d="M29.126 30.8571C28.1662 27.8647 26.2812 25.2544 23.7427 23.4025C21.2039 21.5506 18.1426 20.5527 15.0002 20.5527C11.8578 20.5527 8.79657 21.5506 6.25785 23.4025C3.71916 25.2544 1.8341 27.8647 0.874512 30.8571H29.126Z" stroke="#0F0F0F" stroke-width="1.5" stroke-linecap="round" stroke-linejoin="round"/>
<path d="M15.0002 20.5714C20.3426 20.5714 24.6736 16.2405 24.6736 10.8981C24.6736 5.55571 20.3426 1.22485 15.0002 1.22485C9.65778 1.22485 5.3269 5.55571 5.3269 10.8981C5.3269 16.2405 9.65778 20.5714 15.0002 20.5714Z" stroke="#0F0F0F" stroke-width="1.5" stroke-linecap="round" stroke-linejoin="round"/>
<path d="M18.1588 14.6409C18.1588 14.6409 17.3562 16.2202 15.0002 16.2202C12.6442 16.2202 11.8416 14.6409 11.8416 14.6409" stroke="#0F0F0F" stroke-width="1.5" stroke-linecap="round" stroke-linejoin="round"/>
<path d="M24.4981 9.0564C24.4764 9.05654 24.4549 9.0566 24.4334 9.0566C21.6216 9.0566 19.0972 7.82646 17.3689 5.875C15.6406 7.8265 13.1162 9.05667 10.3044 9.05667C8.67166 9.05667 7.13575 8.64184 5.79639 7.91183C7.05476 4.03089 10.6996 1.22485 14.9999 1.22485C19.7125 1.22485 23.638 4.59484 24.4981 9.0564Z" fill="#FFC32C"/>
<path d="M24.4981 9.0564C24.4764 9.05654 24.4549 9.0566 24.4334 9.0566C21.6216 9.0566 19.0972 7.82646 17.3689 5.875C15.6406 7.8265 13.1162 9.05667 10.3044 9.05667C8.67166 9.05667 7.13575 8.64184 5.79639 7.91183C7.05476 4.03089 10.6996 1.22485 14.9999 1.22485C19.7125 1.22485 23.638 4.59484 24.4981 9.0564Z" stroke="#0F0F0F" stroke-width="1.5" stroke-linecap="round" stroke-linejoin="round"/>
</svg>
