<svg width="32" height="32" viewBox="0 0 32 32" fill="none" xmlns="http://www.w3.org/2000/svg">
<path d="M21.1428 30.8571C22.7208 30.8571 23.9999 29.578 23.9999 28C23.9999 26.4219 22.7208 25.1428 21.1428 25.1428C19.5648 25.1428 18.2856 26.4219 18.2856 28C18.2856 29.578 19.5648 30.8571 21.1428 30.8571Z" fill="#E3E2DF"/>
<path fill-rule="evenodd" clip-rule="evenodd" d="M23.9428 27.4283H28.5028C29.7652 27.4283 30.7885 26.405 30.7885 25.1426V7.99985C30.7885 7.39363 30.5476 6.81226 30.119 6.38359C29.6905 5.95493 29.109 5.71413 28.5028 5.71413H14.7885L14.1485 2.87985C14.0234 2.37269 13.7283 1.92371 13.3124 1.60764C12.8966 1.29157 12.3849 1.12748 11.8628 1.14269H3.42854C2.82232 1.14269 2.24095 1.38351 1.81229 1.81216C1.38364 2.24082 1.14282 2.8222 1.14282 3.42842V25.1426C1.14282 25.749 1.38364 26.3303 1.81229 26.7588C2.24095 27.1876 2.82232 27.4283 3.42854 27.4283H18.3428C18.6076 26.1243 19.7606 25.1426 21.1428 25.1426C22.5251 25.1426 23.6781 26.1243 23.9428 27.4283Z" fill="#FFC32C"/>
<path d="M21.1428 30.8571C22.7208 30.8571 23.9999 29.578 23.9999 28C23.9999 26.4219 22.7208 25.1428 21.1428 25.1428C19.5648 25.1428 18.2856 26.4219 18.2856 28C18.2856 29.578 19.5648 30.8571 21.1428 30.8571Z" stroke="#0F0F0F" stroke-width="1.5" stroke-linecap="round" stroke-linejoin="round"/>
<path d="M12.5714 27.4283H3.42854C2.82232 27.4283 2.24095 27.1876 1.81229 26.7588C1.38364 26.3303 1.14282 25.749 1.14282 25.1426V3.42842C1.14282 2.8222 1.38364 2.24082 1.81229 1.81216C2.24095 1.38351 2.82232 1.14269 3.42854 1.14269H11.8628C12.3849 1.12748 12.8966 1.29157 13.3124 1.60764C13.7283 1.92371 14.0234 2.37269 14.1485 2.87985L14.7885 5.71413H28.5028C29.109 5.71413 29.6905 5.95493 30.119 6.38359C30.5476 6.81226 30.7885 7.39363 30.7885 7.99984V12.5713" stroke="#0F0F0F" stroke-width="1.5" stroke-linecap="round" stroke-linejoin="round"/>
<path d="M24 28V17.1429C24.8702 17.0903 25.7419 17.2142 26.563 17.5071C27.384 17.8 28.1374 18.2558 28.7781 18.8472C29.4185 19.4385 29.9328 20.1532 30.2901 20.9484C30.6473 21.7436 30.8402 22.6027 30.8571 23.4742" stroke="#0F0F0F" stroke-width="1.5" stroke-linecap="round" stroke-linejoin="round"/>
</svg>
