<svg width="36" height="36" viewBox="0 0 36 36" fill="none" xmlns="http://www.w3.org/2000/svg">
<path d="M27.0366 24.7604C27.0366 26.1805 25.8853 27.3318 24.4651 27.3318H3.89369C3.2117 27.3318 2.55765 27.061 2.07542 26.5786C1.59318 26.0965 1.32227 25.4424 1.32227 24.7604V4.18899C1.32227 3.50699 1.59318 2.85295 2.07542 2.37071C2.55765 1.88847 3.2117 1.61755 3.89369 1.61755H24.4651C25.1471 1.61755 25.8013 1.88847 26.2834 2.37071C26.7655 2.85295 27.0366 3.50699 27.0366 4.18899V24.7604Z" fill="#FFC32C"/>
<path d="M14.1792 13.8318C16.3094 13.8318 18.0363 12.1049 18.0363 9.9747C18.0363 7.84445 16.3094 6.11755 14.1792 6.11755C12.0489 6.11755 10.322 7.84445 10.322 9.9747C10.322 12.1049 12.0489 13.8318 14.1792 13.8318Z" fill="#E3E2DF"/>
<path d="M10.153 18.6364C11.403 18.0114 12.7817 17.687 14.1792 17.689C15.5768 17.687 16.9555 18.0114 18.2055 18.6364C19.4556 19.2614 20.5423 20.1697 21.3792 21.289H6.97925C7.8162 20.1697 8.90296 19.2614 10.153 18.6364Z" fill="#E3E2DF"/>
<path d="M6.9646 21.308C8.60569 19.1112 11.2265 17.689 14.1795 17.689C16.2817 17.689 18.2156 18.4097 19.7474 19.6175" stroke="#0F0F0F" stroke-width="1.5" stroke-linecap="round" stroke-linejoin="round"/>
<path d="M12.8937 27.3318H3.89369C3.2117 27.3318 2.55765 27.061 2.07542 26.5786C1.59318 26.0965 1.32227 25.4424 1.32227 24.7604V4.18899C1.32227 3.50699 1.59318 2.85295 2.07542 2.37071C2.55765 1.88847 3.2117 1.61755 3.89369 1.61755H24.4651C25.1471 1.61755 25.8013 1.88847 26.2834 2.37071C26.7655 2.85295 27.0366 3.50699 27.0366 4.18899V11.9033" stroke="#0F0F0F" stroke-width="1.5" stroke-linecap="round" stroke-linejoin="round"/>
<path d="M14.1794 13.8318C16.3097 13.8318 18.0366 12.1049 18.0366 9.9747C18.0366 7.84445 16.3097 6.11755 14.1794 6.11755C12.0492 6.11755 10.3223 7.84445 10.3223 9.9747C10.3223 12.1049 12.0492 13.8318 14.1794 13.8318Z" stroke="#0F0F0F" stroke-width="1.5" stroke-linecap="round" stroke-linejoin="round"/>
<path d="M19.0332 27.162C18.1308 27.0049 18.1308 25.7095 19.0332 25.5525C22.3024 24.9838 24.9026 22.4937 25.6122 19.2522L25.6666 19.0037C25.8618 18.1118 27.1318 18.1063 27.3347 18.9964L27.4008 19.2859C28.1367 22.5122 30.7375 24.9812 33.9978 25.5484C34.9047 25.7062 34.9047 27.0082 33.9978 27.1661C30.7375 27.7331 28.1367 30.2022 27.4008 33.4286L27.3347 33.7181C27.1318 34.6081 25.8618 34.6027 25.6666 33.7109L25.6122 33.4623C24.9026 30.2207 22.3024 27.7308 19.0332 27.162Z" fill="#E3E2DF"/>
<path d="M19.0332 27.162C18.1308 27.0049 18.1308 25.7095 19.0332 25.5525C22.3024 24.9838 24.9026 22.4937 25.6122 19.2522L25.6666 19.0037C25.8618 18.1118 27.1318 18.1063 27.3347 18.9964L27.4008 19.2859C28.1367 22.5122 30.7375 24.9812 33.9978 25.5484C34.9047 25.7062 34.9047 27.0082 33.9978 27.1661C30.7375 27.7331 28.1367 30.2022 27.4008 33.4286L27.3347 33.7181C27.1318 34.6081 25.8618 34.6027 25.6666 33.7109L25.6122 33.4623C24.9026 30.2207 22.3024 27.7308 19.0332 27.162Z" stroke="#0F0F0F" stroke-width="1.5" stroke-linecap="round" stroke-linejoin="round"/>
</svg>
