<svg width="16" height="16" viewBox="0 0 16 16" fill="none" xmlns="http://www.w3.org/2000/svg">
<g clip-path="url(#clip0_531_1135)">
<path d="M7.97407 15.3824C7.38162 15.7639 6.67644 15.9311 5.97576 15.8562C5.2751 15.7814 4.62116 15.4689 4.12264 14.971L3.68836 14.5367C3.49574 14.3419 3.3877 14.0791 3.3877 13.8053C3.3877 13.5313 3.49574 13.2685 3.68836 13.0738L5.51693 11.2566C5.7097 11.0647 5.97063 10.957 6.24264 10.957C6.51467 10.957 6.7756 11.0647 6.96836 11.2566C7.16307 11.4493 7.4259 11.5573 7.69979 11.5573C7.97368 11.5573 8.23651 11.4493 8.43122 11.2566L11.3455 8.34236C11.5382 8.14765 11.6462 7.88482 11.6462 7.61093C11.6462 7.33705 11.5382 7.07421 11.3455 6.8795C11.1536 6.68674 11.0458 6.4258 11.0458 6.15379C11.0458 5.88178 11.1536 5.62084 11.3455 5.42807L13.1055 3.5995C13.3002 3.40687 13.5631 3.29883 13.8369 3.29883C14.1109 3.29883 14.3737 3.40687 14.5683 3.5995L15.0026 4.03379C15.5096 4.52526 15.8327 5.17573 15.9179 5.87665C16.0032 6.57756 15.8456 7.28652 15.4712 7.88522C13.4784 10.8438 10.9327 13.3895 7.97407 15.3824Z" fill="#FFC32C"/>
<path fill-rule="evenodd" clip-rule="evenodd" d="M8.34431 0.126221C8.8177 0.126221 9.20146 0.509976 9.20146 0.983364C9.20146 1.45675 8.8177 1.8405 8.34431 1.8405C7.48134 1.8405 6.62682 2.01048 5.82954 2.34073C5.03224 2.67097 4.30782 3.15502 3.6976 3.76523C3.08739 4.37545 2.60334 5.09987 2.2731 5.89715C1.94285 6.69444 1.77288 7.54896 1.77288 8.41193C1.77288 8.88532 1.38912 9.26907 0.915737 9.26907C0.44235 9.26907 0.0585938 8.88532 0.0585938 8.41193C0.0585938 7.32384 0.27291 6.2464 0.689306 5.24113C1.1057 4.23586 1.71603 3.32244 2.48542 2.55305C3.25483 1.78364 4.16823 1.17332 5.1735 0.756933C6.17877 0.340536 7.25621 0.126221 8.34431 0.126221ZM8.70312 3.43192C9.17651 3.43192 9.56027 3.81568 9.56027 4.28906C9.56027 4.76244 9.17651 5.1462 8.70312 5.1462C7.71804 5.1462 6.7733 5.53753 6.07672 6.23409C5.38016 6.93066 4.98884 7.87541 4.98884 8.86049C4.98884 9.33387 4.60508 9.71763 4.1317 9.71763C3.65831 9.71763 3.27455 9.33387 3.27455 8.86049C3.27455 7.42074 3.8465 6.03996 4.86454 5.02191C5.8826 4.00385 7.26338 3.43192 8.70312 3.43192Z" fill="#A7801E"/>
</g>
<defs>
<clipPath id="clip0_531_1135">
<rect width="16" height="16" fill="white"/>
</clipPath>
</defs>
</svg>
