<svg width="18" height="19" viewBox="0 0 18 19" fill="none" xmlns="http://www.w3.org/2000/svg">
<path d="M9.01016 1.62253C11.4176 1.62253 11.7027 1.63309 12.6494 1.67533C13.5293 1.71404 14.0045 1.86187 14.3212 1.98505C14.7401 2.14695 15.0427 2.34405 15.356 2.65729C15.6728 2.97406 15.8663 3.27322 16.0282 3.69205C16.1514 4.00882 16.2992 4.48748 16.338 5.36386C16.3802 6.31415 16.3908 6.59924 16.3908 9.00312C16.3908 11.4105 16.3802 11.6956 16.338 12.6424C16.2992 13.5223 16.1514 13.9974 16.0282 14.3142C15.8663 14.733 15.6692 15.0357 15.356 15.349C15.0392 15.6657 14.7401 15.8593 14.3212 16.0212C14.0045 16.1444 13.5258 16.2922 12.6494 16.3309C11.6991 16.3732 11.414 16.3837 9.01016 16.3837C6.60276 16.3837 6.31767 16.3732 5.3709 16.3309C4.491 16.2922 4.01586 16.1444 3.69909 16.0212C3.28026 15.8593 2.97758 15.6622 2.66433 15.349C2.34757 15.0322 2.15399 14.733 1.99209 14.3142C1.8689 13.9974 1.72108 13.5188 1.68237 12.6424C1.64013 11.6921 1.62957 11.407 1.62957 9.00312C1.62957 6.59572 1.64013 6.31063 1.68237 5.36386C1.72108 4.48396 1.8689 4.00882 1.99209 3.69205C2.15399 3.27322 2.35109 2.97054 2.66433 2.65729C2.9811 2.34053 3.28026 2.14695 3.69909 1.98505C4.01586 1.86187 4.49452 1.71404 5.3709 1.67533C6.31767 1.63309 6.60276 1.62253 9.01016 1.62253ZM9.01016 0C6.56404 0 6.25784 0.0105588 5.29699 0.0527939C4.33966 0.095029 3.6815 0.249891 3.11132 0.471626C2.51651 0.703919 2.01321 1.01012 1.51343 1.51343C1.01012 2.01321 0.703919 2.51651 0.471626 3.1078C0.249891 3.6815 0.095029 4.33614 0.0527939 5.29347C0.0105588 6.25784 0 6.56404 0 9.01016C0 11.4563 0.0105588 11.7625 0.0527939 12.7233C0.095029 13.6807 0.249891 14.3388 0.471626 14.909C0.703919 15.5038 1.01012 16.0071 1.51343 16.5069C2.01321 17.0067 2.51651 17.3164 3.1078 17.5452C3.6815 17.7669 4.33614 17.9218 5.29347 17.964C6.25432 18.0062 6.56052 18.0168 9.00664 18.0168C11.4528 18.0168 11.759 18.0062 12.7198 17.964C13.6771 17.9218 14.3353 17.7669 14.9055 17.5452C15.4968 17.3164 16.0001 17.0067 16.4999 16.5069C16.9996 16.0071 17.3094 15.5038 17.5381 14.9125C17.7599 14.3388 17.9147 13.6842 17.957 12.7269C17.9992 11.766 18.0098 11.4598 18.0098 9.01368C18.0098 6.56756 17.9992 6.26136 17.957 5.30051C17.9147 4.34318 17.7599 3.68502 17.5381 3.11484C17.3164 2.51651 17.0102 2.01321 16.5069 1.51343C16.0071 1.01364 15.5038 0.703919 14.9125 0.475145C14.3388 0.253411 13.6842 0.0985486 12.7269 0.0563135C11.7625 0.0105588 11.4563 0 9.01016 0Z" fill="#FFC32C"/>
<path d="M9.01022 4.38184C6.455 4.38184 4.38196 6.45488 4.38196 9.0101C4.38196 11.5653 6.455 13.6384 9.01022 13.6384C11.5654 13.6384 13.6385 11.5653 13.6385 9.0101C13.6385 6.45488 11.5654 4.38184 9.01022 4.38184ZM9.01022 12.0123C7.3525 12.0123 6.00801 10.6678 6.00801 9.0101C6.00801 7.35237 7.3525 6.00789 9.01022 6.00789C10.668 6.00789 12.0124 7.35237 12.0124 9.0101C12.0124 10.6678 10.668 12.0123 9.01022 12.0123Z" fill="#FFC32C"/>
<path d="M14.9019 4.19868C14.9019 4.79701 14.4162 5.2792 13.8214 5.2792C13.223 5.2792 12.7408 4.79349 12.7408 4.19868C12.7408 3.60035 13.2265 3.11816 13.8214 3.11816C14.4162 3.11816 14.9019 3.60387 14.9019 4.19868Z" fill="#FFC32C"/>
</svg>
