<svg width="17" height="18" viewBox="0 0 17 18" fill="none" xmlns="http://www.w3.org/2000/svg">
<path d="M3.83425 5.66602H0.259277V17.0173H3.83425V5.66602Z" fill="#FFC32C"/>
<path d="M2.04132 4.0997C1.63273 4.09753 1.23403 3.9734 0.896406 3.74327C0.561519 3.51895 0.30192 3.19907 0.151234 2.82522C-0.00136583 2.45003 -0.0395499 2.03808 0.0415412 1.64124C0.122632 1.24441 0.319324 0.880455 0.60688 0.595208C0.894437 0.309962 1.25992 0.116195 1.6574 0.0383071C2.05488 -0.0395812 2.46634 0.00187199 2.84029 0.157492C3.21322 0.315009 3.53233 0.577728 3.75844 0.913541C3.97715 1.25193 4.0972 1.64473 4.10439 2.04758C4.10232 2.32091 4.05096 2.59165 3.95303 2.84684C3.84534 3.09662 3.69152 3.32381 3.4995 3.51647C3.30355 3.70166 3.07686 3.85149 2.82974 3.95929C2.57935 4.0597 2.31099 4.1075 2.04132 4.0997Z" fill="#FFC32C"/>
<path d="M16.9893 17.0278H13.4253V10.8283C13.4253 9.00303 12.6478 8.44141 11.6433 8.44141C11.3409 8.4481 11.0431 8.51822 10.7695 8.64725C10.4959 8.77628 10.2524 8.96135 10.0549 9.19044C9.85739 9.41952 9.71036 9.68752 9.623 9.97711C9.53564 10.2667 9.5097 10.5714 9.54758 10.8715V17.0278H6.00525V5.67648H9.44V7.25335C9.79184 6.6679 10.2911 6.18516 10.8882 5.85345C11.4852 5.52174 12.1591 5.3527 12.8421 5.36326C14.8293 5.36326 16.9787 6.54053 16.9787 10.0075L16.9893 17.0278Z" fill="#FFC32C"/>
</svg>
