<svg width="31" height="34" viewBox="0 0 31 34" fill="none" xmlns="http://www.w3.org/2000/svg">
<path d="M22.3426 22.2825L17.0503 25.3444L0.84668 16.038L6.13896 12.9761L22.3426 22.2825Z" fill="#4B4B4B"/>
<path d="M6.14967 5.20361V12.9756L0.857422 16.0375V12.5991C0.857846 11.2546 1.21678 9.93456 1.89731 8.77508C2.57785 7.6156 3.55532 6.65864 4.72892 6.00283L6.14967 5.20361Z" fill="#0F0F0F"/>
<path d="M22.3431 22.2825V30.0544L17.0508 33.1163V25.3444L22.3431 22.2825Z" fill="#0F0F0F"/>
<path d="M14.2899 27.0102V33.1659L4.57919 27.5394C3.43717 26.8743 2.48928 25.9215 1.82996 24.776C1.17065 23.6306 0.822887 22.3324 0.821289 21.0107V19.2595L14.2899 27.0102Z" fill="#4B4B4B"/>
<path d="M8.92676 11.4307L14.2226 8.36523L30.4226 17.6753L25.1304 20.7372L8.92676 11.4307Z" fill="#4B4B4B"/>
<path d="M25.1309 28.5093V20.7338L30.4232 17.6719V21.1103C30.4231 22.454 30.065 23.7734 29.3858 24.9327C28.7066 26.0921 27.7307 27.0495 26.5587 27.7065L25.1309 28.5093Z" fill="#0F0F0F"/>
<path d="M8.92676 11.431V3.64128L14.2226 0.675293V8.36555L8.92676 11.431Z" fill="#0F0F0F"/>
<path d="M16.9824 6.70269V0.532715L26.6897 6.15921C27.8367 6.82354 28.7889 7.77771 29.4509 8.92606C30.1129 10.0744 30.4615 11.3766 30.4617 12.7022V14.4533L16.9824 6.70269Z" fill="#4B4B4B"/>
</svg>
