<svg viewBox="0 0 163 40" fill="none" xmlns="http://www.w3.org/2000/svg">
    <path d="M47.5664 16.3474C46.4371 16.3676 45.3252 16.0668 44.3601 15.4801C43.4562 14.9362 42.773 14.091 42.4307 13.0931L44.4197 12.1224C44.6779 12.7679 45.1225 13.3218 45.6968 13.7137C46.2472 14.0743 46.8925 14.2627 47.5505 14.2548C48.0417 14.2778 48.5279 14.1486 48.9428 13.8848C49.1073 13.7824 49.2425 13.6392 49.3352 13.4691C49.4279 13.299 49.4751 13.1078 49.472 12.9141C49.4793 12.7357 49.437 12.5587 49.35 12.4028C49.2629 12.2469 49.1344 12.1182 48.9787 12.0309C48.6551 11.8326 48.3057 11.68 47.9404 11.5773L45.9513 11.0562C45.0777 10.8698 44.2797 10.4265 43.6599 9.78312C43.1605 9.21879 42.8909 8.48773 42.9041 7.73426C42.8908 7.24562 42.9917 6.76061 43.1989 6.31788C43.4061 5.87514 43.7138 5.48693 44.0976 5.18416C44.9939 4.5012 46.1028 4.15734 47.2283 4.21344C48.2809 4.18799 49.3189 4.46406 50.2198 5.00911C51.0507 5.52057 51.6909 6.29069 52.0418 7.20118L50.0129 8.15198C49.8139 7.61211 49.4419 7.1533 48.9548 6.8471C48.4361 6.52887 47.8366 6.36725 47.2283 6.38164C46.7755 6.35565 46.3261 6.47253 45.9433 6.71581C45.7966 6.81368 45.677 6.94707 45.5957 7.10357C45.5143 7.26006 45.4738 7.43459 45.4779 7.61093C45.4696 7.78022 45.5065 7.94868 45.5848 8.099C45.6631 8.24932 45.7799 8.3761 45.9234 8.46629C46.2185 8.66181 46.5419 8.81074 46.8822 8.90788L48.9548 9.49269C49.8248 9.70144 50.6204 10.1461 51.2541 10.7777C51.7786 11.3342 52.0642 12.0739 52.0498 12.8385C52.0604 13.4954 51.8595 14.1384 51.4768 14.6725C51.072 15.226 50.521 15.6558 49.8856 15.9137C49.1502 16.2151 48.361 16.3627 47.5664 16.3474Z" fill="#F9F9F9"/>
    <path d="M58.6206 16.3471C57.545 16.3646 56.4848 16.0896 55.5534 15.5515C54.6592 15.0288 53.9216 14.276 53.4172 13.3713C52.8854 12.4214 52.6111 11.3489 52.6216 10.2603C52.6078 9.17124 52.8823 8.09793 53.4172 7.14923C53.927 6.25487 54.6638 5.51103 55.5534 4.99298C56.4848 4.45489 57.545 4.17988 58.6206 4.19731C59.4012 4.19004 60.1756 4.336 60.9 4.62696C61.5761 4.90382 62.1921 5.30913 62.714 5.82046C63.2102 6.30423 63.5898 6.89471 63.8239 7.54707L61.5803 8.66896C61.3683 8.06184 60.9753 7.53422 60.4544 7.15717C59.9194 6.77768 59.2763 6.58096 58.6206 6.59624C58.0212 6.58679 57.4322 6.75273 56.9259 7.07364C56.4256 7.39404 56.0224 7.8453 55.7603 8.37853C55.4697 8.97242 55.3252 9.62711 55.3387 10.2881C55.3259 10.9427 55.4705 11.5908 55.7603 12.1778C56.0223 12.7122 56.4254 13.1648 56.9259 13.4867C57.4334 13.8045 58.0219 13.9689 58.6206 13.9601C59.2763 13.9754 59.9194 13.7787 60.4544 13.3992C60.9761 13.0229 61.3692 12.495 61.5803 11.8874L63.8239 13.0332C63.5878 13.6757 63.2114 14.2574 62.7219 14.7359C62.2052 15.2536 61.5879 15.6599 60.908 15.9294C60.1799 16.216 59.403 16.3579 58.6206 16.3471Z" fill="#F9F9F9"/>
    <path d="M64.8438 2.91613V0H67.4335V2.91613H64.8438ZM64.8438 16.0844V4.44778H67.4335V16.0844H64.8438Z" fill="#F9F9F9"/>
    <path d="M74.6214 16.3468C73.5307 16.375 72.4537 16.0995 71.5105 15.5512C70.6284 15.0222 69.9054 14.2648 69.418 13.3591C68.9064 12.4115 68.6462 11.3487 68.6622 10.2719C68.6424 9.1846 68.9026 8.1105 69.418 7.1529C69.8981 6.26059 70.61 5.5143 71.4786 4.99267C72.3685 4.45937 73.3891 4.1839 74.4264 4.197C75.45 4.18359 76.4565 4.45938 77.3304 4.99267C78.1609 5.49713 78.8463 6.20857 79.3194 7.0574C79.8026 7.91694 80.0522 8.88806 80.0434 9.87407C80.0434 10.077 80.0434 10.2719 80.0116 10.4788C79.9921 10.6677 79.9602 10.8551 79.9161 11.0397H71.3434C71.3983 11.8812 71.7776 12.6685 72.4016 13.2358C73.0215 13.7864 73.8283 14.0795 74.6571 14.0553C75.2684 14.0772 75.8728 13.9196 76.3956 13.6018C76.8528 13.3131 77.2281 12.9117 77.4856 12.4361L79.6257 13.4745C79.2464 14.3447 78.5944 15.068 77.768 15.5353C76.8151 16.0935 75.7253 16.3745 74.6214 16.3468ZM74.4264 6.34927C73.7098 6.3338 73.0116 6.57827 72.4612 7.03751C71.8886 7.54802 71.5141 8.24377 71.403 9.00282H77.2548C77.2439 8.64104 77.1596 8.28524 77.0071 7.957C76.8547 7.62875 76.6371 7.33489 76.3677 7.09322C75.8409 6.6039 75.1453 6.33733 74.4264 6.34927Z" fill="#F9F9F9"/>
    <path d="M81.1533 16.0848V4.44812H83.5918V5.82862C83.9189 5.30044 84.3913 4.87777 84.9524 4.61125C85.5598 4.3231 86.2254 4.1788 86.8977 4.18955C87.6924 4.17222 88.4775 4.36576 89.1731 4.75048C89.8159 5.11302 90.3492 5.64214 90.7167 6.28216C91.1003 6.96814 91.2939 7.74408 91.2775 8.5299V16.0888H88.6878V9.17837C88.7055 8.834 88.6544 8.48956 88.5377 8.16512C88.4209 7.84068 88.2407 7.54273 88.0076 7.28866C87.7761 7.05333 87.498 6.86909 87.1911 6.74781C86.8841 6.62653 86.5551 6.57091 86.2254 6.58451C85.8919 6.57061 85.5592 6.6268 85.2488 6.74946C84.9384 6.87212 84.6572 7.05852 84.4233 7.29663C84.1919 7.55023 84.0127 7.84695 83.896 8.16983C83.7793 8.4927 83.7273 8.83541 83.7431 9.17837V16.0848H81.1533Z" fill="#F9F9F9"/>
    <path d="M98.3463 16.3471C97.2721 16.364 96.2134 16.089 95.2832 15.5514C94.3879 15.0289 93.6489 14.2761 93.143 13.3713C92.6181 12.4195 92.3507 11.3471 92.3672 10.2602C92.3474 9.173 92.6149 8.0998 93.143 7.14919C93.6543 6.25466 94.3926 5.51088 95.2832 4.99294C96.2134 4.45535 97.2721 4.18035 98.3463 4.19727C99.1269 4.19 99.9014 4.33596 100.626 4.62691C101.302 4.90378 101.918 5.30909 102.44 5.82041C102.937 6.30404 103.318 6.89447 103.554 7.54702L101.306 8.66892C101.093 8.06339 100.702 7.53639 100.184 7.15713C99.648 6.77707 99.0034 6.58034 98.3463 6.59619C97.747 6.58675 97.1579 6.75269 96.6517 7.0736C96.1523 7.39523 95.7496 7.84617 95.4861 8.37848C95.1987 8.97332 95.0555 9.62757 95.0684 10.2881C95.0564 10.9421 95.1996 11.5897 95.4861 12.1778C95.7495 12.7112 96.1522 13.1635 96.6517 13.4867C97.1591 13.8045 97.7476 13.9689 98.3463 13.9601C99.0034 13.976 99.648 13.7792 100.184 13.3992C100.704 13.0215 101.095 12.494 101.306 11.8874L103.554 13.0331C103.316 13.6749 102.94 14.2563 102.452 14.7359C101.934 15.2519 101.317 15.6578 100.638 15.9294C99.9083 16.216 99.13 16.3579 98.3463 16.3471Z" fill="#F9F9F9"/>
    <path d="M109.963 16.3468C108.874 16.3749 107.798 16.0994 106.856 15.5512C105.974 15.0212 105.25 14.2642 104.76 13.3591C104.251 12.4105 103.991 11.3483 104.004 10.2719C103.985 9.18474 104.246 8.11095 104.76 7.1529C105.243 6.26124 105.955 5.51528 106.824 4.99267C107.714 4.45937 108.735 4.1839 109.772 4.197C110.796 4.18359 111.802 4.45938 112.676 4.99267C113.506 5.49827 114.191 6.20944 114.665 7.0574C115.148 7.91694 115.398 8.88806 115.389 9.87407C115.389 10.077 115.389 10.2719 115.357 10.4788C115.337 10.6678 115.303 10.8552 115.258 11.0397H106.685C106.731 11.8898 107.108 12.688 107.735 13.2636C108.355 13.8153 109.162 14.1086 109.991 14.0832C110.602 14.1046 111.206 13.947 111.729 13.6296C112.186 13.34 112.561 12.9388 112.819 12.464L114.956 13.5023C114.578 14.3737 113.925 15.0975 113.098 15.5631C112.146 16.1104 111.06 16.3818 109.963 16.3468ZM109.772 6.34927C109.055 6.33307 108.357 6.57763 107.807 7.03751C107.233 7.54694 106.858 8.24323 106.749 9.00281H112.601C112.589 8.64121 112.504 8.2857 112.352 7.95758C112.199 7.62946 111.982 7.33547 111.713 7.09322C111.187 6.6039 110.491 6.33733 109.772 6.34927Z" fill="#F9F9F9"/>
    <path d="M119.741 20.3971V4.44002H122.18V5.90803C122.597 5.35128 123.153 4.9126 123.791 4.63496C124.494 4.32549 125.255 4.17081 126.023 4.18142C127.07 4.16762 128.101 4.44293 129.002 4.97709C129.889 5.50117 130.623 6.2488 131.13 7.14529C131.666 8.08947 131.94 9.15908 131.926 10.2444C131.94 11.3335 131.666 12.4068 131.13 13.3555C130.624 14.2562 129.891 15.0081 129.002 15.5356C128.095 16.0718 127.057 16.3471 126.003 16.3313C125.282 16.3361 124.567 16.2009 123.898 15.9334C123.298 15.7015 122.761 15.3307 122.331 14.8513V20.3971H119.741ZM125.764 13.9403C126.387 13.9507 127 13.7867 127.534 13.4669C128.055 13.1493 128.481 12.6971 128.767 12.158C129.077 11.5769 129.233 10.9265 129.221 10.2683C129.234 9.60362 129.078 8.94655 128.767 8.35867C128.481 7.82064 128.055 7.36983 127.534 7.05379C127.001 6.73092 126.387 6.56541 125.764 6.57639C125.138 6.5628 124.521 6.72844 123.986 7.05379C123.478 7.37324 123.065 7.82409 122.792 8.35867C122.487 8.94806 122.334 9.60454 122.347 10.2683C122.334 10.9242 122.483 11.5732 122.78 12.158C123.05 12.6962 123.463 13.1493 123.974 13.4669C124.515 13.7919 125.137 13.9586 125.768 13.9482L125.764 13.9403Z" fill="#F9F9F9"/>
    <path d="M136.803 16.3473C136.029 16.3662 135.261 16.2112 134.555 15.8938C133.963 15.6238 133.455 15.1974 133.087 14.6605C132.739 14.1364 132.559 13.519 132.57 12.8901C132.561 12.4823 132.644 12.0777 132.812 11.7059C132.98 11.3342 133.229 11.0048 133.541 10.7418C134.336 10.1047 135.278 9.6779 136.282 9.50056L140.104 8.68102V8.31502C140.112 8.06664 140.061 7.81997 139.956 7.59475C139.851 7.36954 139.695 7.17204 139.5 7.01808C139.046 6.66644 138.481 6.4899 137.909 6.52079C137.324 6.51116 136.751 6.68054 136.266 7.00616C135.795 7.3265 135.434 7.78328 135.231 8.31502L132.984 7.18915C133.341 6.2843 133.991 5.52517 134.829 5.0329C135.754 4.46216 136.823 4.16938 137.909 4.18949C138.77 4.16943 139.624 4.35061 140.403 4.71862C141.081 5.0435 141.659 5.5468 142.074 6.17468C142.483 6.81223 142.694 7.55735 142.678 8.31502V16.0847H140.24V14.7918C139.822 15.2943 139.296 15.6955 138.7 15.9649C138.105 16.2344 137.456 16.3651 136.803 16.3473ZM135.267 12.8702C135.259 13.0719 135.3 13.2726 135.386 13.4549C135.473 13.6373 135.603 13.7957 135.764 13.9165C136.155 14.1938 136.626 14.3338 137.105 14.3144C137.645 14.3164 138.177 14.1794 138.649 13.9165C139.092 13.6747 139.461 13.3155 139.715 12.8782C139.979 12.4315 140.117 11.9212 140.112 11.4022V10.6066L136.811 11.3624C136.391 11.4368 136 11.6285 135.685 11.9154C135.55 12.0352 135.442 12.1822 135.368 12.3468C135.294 12.5113 135.255 12.6897 135.255 12.8702H135.267Z" fill="#F9F9F9"/>
    <path d="M144.23 16.0843V4.44764H146.669V6.07479C146.924 5.4949 147.369 5.01918 147.93 4.72613C148.521 4.44927 149.168 4.3131 149.82 4.32829H150.902V6.66358H149.497C149.142 6.64927 148.786 6.7079 148.454 6.83583C148.121 6.96377 147.819 7.1583 147.564 7.40752C147.305 7.69003 147.105 8.02211 146.977 8.38378C146.849 8.74545 146.796 9.12925 146.82 9.51208V16.0962L144.23 16.0843Z" fill="#F9F9F9"/>
    <path d="M151.964 16.0844V0H154.554V9.48039L159.26 4.44778H162.307L158.054 9.13427L162.307 16.0844H159.435L156.368 10.9922L154.554 12.9535V16.0844H151.964Z" fill="#F9F9F9"/>
    <path d="M46.7468 35.5149C45.9745 35.5332 45.2079 35.3783 44.5032 35.0614C43.9097 34.7953 43.4015 34.3697 43.0353 33.8321C42.6867 33.3082 42.5051 32.6909 42.5142 32.0617C42.5062 31.6536 42.5895 31.2489 42.7582 30.8772C42.9268 30.5055 43.1765 30.1762 43.4888 29.9134C44.2829 29.2747 45.2258 28.8477 46.2297 28.6722L50.0527 27.8487V27.4827C50.0601 27.2343 50.0093 26.9876 49.9043 26.7624C49.7993 26.5372 49.643 26.3397 49.448 26.1857C48.9927 25.838 48.4288 25.6632 47.8567 25.6924C47.2734 25.6808 46.7007 25.8503 46.2177 26.1778C45.7465 26.4965 45.3842 26.9518 45.1795 27.4827L42.9637 26.3647C43.3181 25.4573 43.9684 24.6961 44.8095 24.2045C45.7332 23.6362 46.8002 23.3436 47.8846 23.3611C48.7457 23.3429 49.5992 23.524 50.3788 23.8902C51.0589 24.2163 51.6379 24.7209 52.0537 25.3503C52.4619 25.987 52.6723 26.7304 52.6583 27.4866V35.2603H50.2197V33.9634C49.798 34.4703 49.2656 34.8738 48.6635 35.1428C48.0615 35.4117 47.4058 35.5391 46.7468 35.5149ZM45.2152 32.0379C45.2065 32.2402 45.2473 32.4415 45.3339 32.6246C45.4206 32.8076 45.5505 32.9667 45.7125 33.0881C46.1048 33.3564 46.5746 33.4879 47.0492 33.4621C47.5873 33.4722 48.1188 33.3434 48.5926 33.0881C49.0359 32.8441 49.4056 32.4855 49.6628 32.0498C49.9277 31.6019 50.0653 31.0902 50.0606 30.5699V29.7941L46.7548 30.55C46.3361 30.622 45.9468 30.8125 45.633 31.099C45.5027 31.2168 45.3983 31.3604 45.3264 31.5206C45.2545 31.6809 45.2167 31.8543 45.2152 32.0299V32.0379Z" fill="#F9F9F9"/>
    <path d="M59.5094 35.5149C58.4339 35.5323 57.3737 35.2573 56.4423 34.7192C55.5464 34.1988 54.8082 33.4454 54.3061 32.5391C53.7727 31.5912 53.4983 30.5196 53.5105 29.432C53.4942 28.3427 53.7688 27.2687 54.3061 26.321C54.8134 25.4237 55.5508 24.678 56.4423 24.1607C57.3737 23.6226 58.4339 23.3476 59.5094 23.365C60.2891 23.3585 61.0623 23.5059 61.7849 23.7987C62.4628 24.0721 63.0795 24.4779 63.5989 24.9922C64.0985 25.474 64.4797 26.065 64.7127 26.7188L62.4651 27.8407C62.2542 27.2341 61.8627 26.7065 61.3433 26.3289C60.8083 25.9494 60.1652 25.7527 59.5094 25.768C58.9106 25.758 58.3218 25.9225 57.8148 26.2414C57.3133 26.5622 56.91 27.0151 56.6491 27.5503C56.3581 28.144 56.2136 28.7988 56.2275 29.4599C56.2153 30.1144 56.3598 30.7623 56.6491 31.3496C56.91 31.8836 57.3135 32.3352 57.8148 32.6545C58.3206 32.9764 58.9099 33.1425 59.5094 33.1319C60.1652 33.1471 60.8083 32.9504 61.3433 32.5709C61.8611 32.1917 62.2522 31.6647 62.4651 31.0591L64.7127 32.2009C64.4753 32.8439 64.0991 33.4266 63.6108 33.9076C63.0917 34.4224 62.475 34.8281 61.7968 35.1011C61.0685 35.3864 60.2915 35.5269 59.5094 35.5149Z" fill="#F9F9F9"/>
    <path d="M69.3934 35.5146C68.621 35.533 67.8544 35.378 67.1498 35.0611C66.5579 34.7922 66.0505 34.3672 65.6819 33.8318C65.3347 33.3074 65.1544 32.6902 65.1647 32.0615C65.1559 31.6536 65.2386 31.249 65.4065 30.8773C65.5745 30.5055 65.8235 30.1761 66.1353 29.9132C66.93 29.2754 67.8727 28.8484 68.8762 28.6719L72.6992 27.8484V27.4824C72.7066 27.234 72.6559 26.9873 72.5509 26.7621C72.4459 26.5369 72.2895 26.3394 72.0945 26.1854C71.6397 25.8368 71.0755 25.6619 70.5033 25.6921C69.9186 25.6804 69.3448 25.85 68.8604 26.1775C68.3906 26.4968 68.0296 26.9521 67.826 27.4824L65.5784 26.3605C65.9328 25.453 66.5832 24.6918 67.4242 24.2003C68.3492 23.6314 69.4175 23.3388 70.5033 23.3568C71.3643 23.3395 72.2177 23.5206 72.9975 23.886C73.6772 24.2111 74.255 24.716 74.6683 25.346C75.0765 25.9827 75.287 26.7262 75.273 27.4824V35.2561H72.8345V33.9591C72.4169 34.4629 71.8899 34.8649 71.2936 35.1344C70.6974 35.404 70.0474 35.534 69.3934 35.5146ZM67.8619 32.0376C67.8538 32.2398 67.8947 32.4409 67.9813 32.6238C68.0679 32.8067 68.1976 32.966 68.3591 33.0879C68.7514 33.3562 69.2211 33.4876 69.6957 33.4618C70.2338 33.4719 70.7654 33.3431 71.2392 33.0879C71.6825 32.8438 72.0521 32.4852 72.3093 32.0495C72.5743 31.6016 72.7118 31.0899 72.7071 30.5696V29.7938L69.4013 30.5497C68.9826 30.6218 68.5933 30.8123 68.2795 31.0987C68.1492 31.2165 68.0449 31.3601 67.973 31.5203C67.9011 31.6806 67.8633 31.854 67.8619 32.0296V32.0376Z" fill="#F9F9F9"/>
    <path d="M82.067 35.5148C81.009 35.5328 79.9666 35.2574 79.0556 34.7191C78.1743 34.1905 77.4483 33.4384 76.9511 32.539C76.4208 31.5971 76.1465 30.5327 76.1555 29.4518C76.1456 28.3632 76.4199 27.2909 76.9511 26.3407C77.4504 25.4389 78.1809 24.6863 79.0675 24.1606C79.9687 23.6265 80.9996 23.3511 82.0471 23.3649C82.7749 23.3513 83.4979 23.4867 84.1714 23.7628C84.7845 24.0125 85.3297 24.4038 85.7627 24.9046V19.1638H88.3564V35.2482H85.8939V33.8877C85.4485 34.4135 84.882 34.8231 84.243 35.0812C83.5544 35.3711 82.8142 35.5186 82.067 35.5148ZM82.3256 33.1278C82.9473 33.139 83.56 32.9779 84.0958 32.6623C84.6165 32.3532 85.0398 31.9038 85.3171 31.3654C85.6203 30.7753 85.772 30.1191 85.7587 29.4558C85.772 28.7925 85.6203 28.1363 85.3171 27.5462C85.0379 27.006 84.6154 26.5531 84.0958 26.2373C83.5614 25.9174 82.9482 25.7534 82.3256 25.7639C81.6964 25.7518 81.0764 25.9158 80.5354 26.2373C80.0155 26.5563 79.5931 27.0117 79.3141 27.5541C79.0136 28.1424 78.862 28.7953 78.8726 29.4558C78.8616 30.1125 79.0132 30.7617 79.3141 31.3455C79.5947 31.8836 80.017 32.3348 80.5354 32.6504C81.081 32.9785 81.709 33.1441 82.3455 33.1278H82.3256Z" fill="#F9F9F9"/>
    <path d="M95.6057 35.5151C94.5164 35.5419 93.4411 35.2665 92.4988 34.7194C91.6163 34.1896 90.8923 33.4326 90.4023 32.5274C89.8917 31.5794 89.6316 30.5168 89.6465 29.4402C89.6273 28.3517 89.8875 27.2764 90.4023 26.3172C90.8849 25.4277 91.5963 24.6833 92.4629 24.1609C93.3529 23.6278 94.3734 23.3524 95.4108 23.3652C96.4344 23.3514 97.441 23.6272 98.3147 24.1609C99.1438 24.6654 99.8289 25.3752 100.304 26.2217C100.785 27.0818 101.033 28.0527 101.024 29.0384C101.025 29.2404 101.015 29.4423 100.992 29.6431C100.974 29.8335 100.942 30.0223 100.896 30.208H92.3238C92.3713 31.0568 92.7464 31.8541 93.3699 32.4319C93.9922 32.9813 94.7997 33.2742 95.6295 33.2514C96.2395 33.2728 96.8425 33.1151 97.364 32.7979C97.8205 32.5071 98.1967 32.1063 98.4579 31.6322L100.594 32.6666C100.216 33.5383 99.5634 34.2631 98.7364 34.7314C97.7846 35.2752 96.7014 35.5464 95.6057 35.5151ZM95.4108 25.5175C94.6933 25.5017 93.9946 25.7478 93.4455 26.2098C92.8721 26.7196 92.4974 27.4157 92.3874 28.1751H98.259C98.2482 27.8131 98.1645 27.457 98.0127 27.1282C97.861 26.7993 97.6444 26.5045 97.3759 26.2615C96.8424 25.7667 96.1383 25.4973 95.4108 25.5096V25.5175Z" fill="#F9F9F9"/>
    <path d="M102.126 35.2485V23.6118H104.569V25.0361C104.857 24.4995 105.301 24.0627 105.842 23.7829C106.415 23.4888 107.051 23.3399 107.695 23.3493C108.426 23.3383 109.148 23.5135 109.792 23.8585C110.401 24.1881 110.908 24.6778 111.26 25.2748C111.61 24.6798 112.118 24.1936 112.728 23.8704C113.392 23.5159 114.135 23.3365 114.888 23.3493C115.637 23.3364 116.375 23.5275 117.024 23.9022C117.641 24.2672 118.149 24.7923 118.492 25.422C118.865 26.1185 119.051 26.8997 119.033 27.6896V35.2485H116.443V28.354C116.486 27.6605 116.261 26.977 115.815 26.4444C115.603 26.2179 115.345 26.0399 115.058 25.9224C114.771 25.805 114.462 25.751 114.152 25.7641C113.843 25.7535 113.535 25.8098 113.25 25.9293C112.965 26.0488 112.71 26.2286 112.501 26.4563C112.052 26.9832 111.824 27.6631 111.864 28.354V35.2644H109.275V28.354C109.317 27.6605 109.092 26.977 108.646 26.4444C108.434 26.2179 108.176 26.0399 107.889 25.9224C107.602 25.805 107.293 25.751 106.983 25.7641C106.676 25.7528 106.37 25.8089 106.087 25.9285C105.804 26.0481 105.55 26.2283 105.344 26.4563C104.903 26.9866 104.679 27.6651 104.72 28.354V35.2644L102.126 35.2485Z" fill="#F9F9F9"/>
    <path d="M121.861 39.9983C121.554 39.9997 121.247 39.9785 120.942 39.9347C120.666 39.8981 120.397 39.8175 120.147 39.696V37.5039C120.349 37.5565 120.555 37.5964 120.763 37.6233C121.003 37.6576 121.245 37.6749 121.487 37.675C121.887 37.6945 122.284 37.6095 122.641 37.4283C122.905 37.2797 123.128 37.0678 123.289 36.8117C123.431 36.5832 123.558 36.3452 123.667 36.0996L124.065 35.1925L119.49 23.5996H122.319L125.449 31.8228L128.58 23.5996H131.409L126.237 36.5968C126.11 36.9111 125.947 37.2652 125.752 37.6551C125.543 38.0622 125.274 38.4362 124.956 38.765C124.603 39.1346 124.182 39.4319 123.715 39.6403C123.13 39.8931 122.498 40.0153 121.861 39.9983Z" fill="#F9F9F9"/>
    <path d="M24.1037 24.9166L18.1764 28.346L0.0283203 17.9227L5.95567 14.4934L24.1037 24.9166Z" fill="#FFC32C"/>
    <path d="M5.96736 5.78833V14.4929L0.0400391 17.9222V14.0712C0.0405136 12.5654 0.442518 11.087 1.20472 9.78838C1.96692 8.48976 3.06169 7.41796 4.37612 6.68346L5.96736 5.78833Z" fill="#E0A728"/>
    <path d="M24.1041 24.9165V33.6211L18.1768 37.0504V28.3458L24.1041 24.9165Z" fill="#E0A728"/>
    <path d="M15.0849 30.2117V37.1062L4.20885 30.8045C2.92979 30.0595 1.86815 28.9924 1.12972 27.7095C0.391282 26.4266 0.00179 24.9726 0 23.4923V21.531L15.0849 30.2117Z" fill="#FFC32C"/>
    <path d="M9.07812 12.7627L15.0095 9.32935L33.1535 19.7566L27.2262 23.1859L9.07812 12.7627Z" fill="#FFC32C"/>
    <path d="M27.2266 31.8906V23.182L33.154 19.7527V23.6037C33.1539 25.1086 32.7528 26.5864 31.9921 27.8848C31.2314 29.1833 30.1384 30.2556 28.8258 30.9915L27.2266 31.8906Z" fill="#E0A728"/>
    <path d="M9.07812 12.763V4.03845L15.0095 0.716553V9.32964L9.07812 12.763Z" fill="#E0A728"/>
    <path d="M18.1006 7.46726V0.556885L28.9727 6.85856C30.2574 7.60261 31.3238 8.67128 32.0653 9.95743C32.8068 11.2436 33.1972 12.7021 33.1974 14.1867V16.148L18.1006 7.46726Z" fill="#FFC32C"/>
</svg>
