<svg viewBox="0 0 40 29" fill="none" xmlns="http://www.w3.org/2000/svg">
<path opacity="0.3" d="M11.1111 0.000244141H6.66667C2.99052 0.000244141 0 2.78783 0 6.21453V10.3574C0 13.7841 2.99052 16.5717 6.66667 16.5717H11.1111C11.8246 16.5717 12.4993 16.4392 13.1443 16.2447C12.2483 21.1234 7.70978 24.8574 2.22222 24.8574C0.993926 24.8574 0 25.7839 0 26.9288C0 28.0738 0.993926 29.0002 2.22222 29.0002C10.7987 29.0002 17.7778 22.4947 17.7778 14.5002V6.21453C17.7778 2.78783 14.7873 0.000244141 11.1111 0.000244141ZM33.3333 0.000244141H28.8889C25.2127 0.000244141 22.2222 2.78783 22.2222 6.21453V10.3574C22.2222 13.7841 25.2127 16.5717 28.8889 16.5717H33.3333C34.0468 16.5717 34.7215 16.4392 35.3665 16.2447C34.4705 21.1234 29.932 24.8574 24.4444 24.8574C23.2161 24.8574 22.2222 25.7839 22.2222 26.9288C22.2222 28.0738 23.2161 29.0002 24.4444 29.0002C33.0209 29.0002 40 22.4947 40 14.5002V6.21453C40 2.78783 37.0095 0.000244141 33.3333 0.000244141Z" fill="#DBDBDB"/>
</svg>
