<svg width="16" height="16" viewBox="0 0 16 16" fill="none" xmlns="http://www.w3.org/2000/svg">
<path d="M8 16C12.4183 16 16 12.4183 16 8C16 3.58172 12.4183 0 8 0C3.58172 0 0 3.58172 0 8C0 12.4183 3.58172 16 8 16Z" fill="#B7B7B7"/>
<path d="M8.00021 8.57146C9.57817 8.57146 10.8574 7.29228 10.8574 5.71432C10.8574 4.13636 9.57817 2.85718 8.00021 2.85718C6.42225 2.85718 5.14307 4.13636 5.14307 5.71432C5.14307 7.29228 6.42225 8.57146 8.00021 8.57146Z" fill="#0F0F0F"/>
<path d="M12.8489 12.0001C11.696 10.6041 9.95178 9.71436 7.99985 9.71436C6.04791 9.71436 4.30378 10.6041 3.15088 12.0001C4.30378 13.3961 6.04791 14.2858 7.99985 14.2858C9.95178 14.2858 11.696 13.3961 12.8489 12.0001Z" fill="#0F0F0F"/>
</svg>
