<svg viewBox="0 0 679 486" fill="none" xmlns="http://www.w3.org/2000/svg">
<path d="M328.985 77.0077C360.135 94.8913 391.284 112.775 422.478 131.149C412.318 137.44 402.115 143.242 391.913 149.044C366.454 134.498 340.993 119.958 315.54 105.403C310.216 102.358 304.924 99.2585 299.393 95.6648C300.854 93.8897 302.443 92.4701 304.243 91.4066C312.458 86.5523 320.732 81.798 328.985 77.0077Z" fill="#FDC12C"/>
<path d="M282.5 104.731C304.731 117.423 326.97 130.099 349.188 142.813C358.132 147.932 367.029 153.136 375.661 158.677C365.173 164.748 354.971 170.443 344.768 176.138C325.64 165.26 306.502 154.399 287.387 143.497C275.735 136.851 264.119 130.141 252.28 122.867C257.545 118.773 262.911 115.09 268.52 111.823C273.028 109.198 277.829 107.076 282.5 104.731Z" fill="#FDC12C"/>
<path d="M454.819 412.008C454.566 407.37 454.712 403.157 453.962 399.109C452.973 393.76 448.682 390.68 443.183 390.539C437.772 390.4 433.41 393.354 432.004 398.617C431.286 401.307 431.079 404.195 431.053 406.997C430.95 417.958 431.011 428.922 431.011 440.031C426.346 440.031 422.044 440.031 417.446 440.031C417.446 419.829 417.446 399.773 417.446 379.353C421.404 379.353 425.476 379.353 429.87 379.353C430.073 380.814 430.31 382.52 430.567 384.364C443.448 374.646 454.918 375.475 465.323 387.034C470.353 380.375 477.086 377.446 485.419 377.776C496.428 378.213 505.62 386.58 505.907 397.637C506.271 411.612 505.995 425.603 505.995 439.884C501.421 439.884 497.022 439.884 492.147 439.884C492.147 427.566 492.28 415.293 492.104 403.023C491.97 393.718 484.431 388.145 476.272 391.219C470.242 393.491 468.582 398.629 468.547 404.49C468.488 414.318 468.529 424.147 468.528 433.975C468.528 435.803 468.528 437.63 468.528 439.819C463.997 439.819 459.624 439.819 454.819 439.819C454.819 430.737 454.819 421.621 454.819 412.008Z" fill="#F3F3F3"/>
<path d="M345.541 375.001C345.541 396.825 345.541 418.15 345.541 439.832C341.125 439.832 336.88 439.832 332.397 439.832C332.258 438.323 332.108 436.704 331.888 434.321C324.876 440.317 316.982 442.368 308.25 441.346C299.279 440.296 292.265 435.953 287.12 428.649C278.371 416.227 279.691 397.924 289.988 387.13C300.695 375.906 315.59 374.736 331.223 384.233C331.223 374.754 331.223 365.559 331.223 356.09C336.148 356.09 340.578 356.09 345.541 356.09C345.541 362.293 345.541 368.397 345.541 375.001ZM326.569 395.988C315.459 386.08 300.011 390.346 296.406 404.318C294.037 413.497 297.965 423.084 305.676 426.945C313.243 430.735 322.483 428.68 327.678 422.052C333.006 415.254 332.747 404.738 326.569 395.988Z" fill="#F0F0F0"/>
<path d="M443.014 336.671C443.011 345.416 443.011 353.722 443.011 362.222C438.286 362.222 433.879 362.222 429.313 362.222C429.313 334.464 429.313 307.012 429.313 279.189C433.367 279.189 437.429 279.189 441.834 279.189C442.057 280.733 442.323 282.581 442.674 285.022C449.899 278.432 457.931 276.33 466.993 277.7C484.859 280.403 496.59 298.01 492.59 316.237C488.541 334.692 470.865 345.426 453.212 339.948C450.268 339.034 447.664 337.057 444.839 335.705C444.412 335.502 443.633 336.037 443.014 336.671ZM460.572 290.172C450.111 291.013 443.407 297.865 443.007 308.124C442.609 318.364 448.454 326.543 457.252 328.056C468.179 329.934 477.205 323.135 478.736 311.876C480.269 300.601 472.973 291.466 460.572 290.172Z" fill="#F4F4F4"/>
<path d="M344.83 33.7166C345.22 29.5655 347.128 32.2069 348.035 32.7152C355.134 36.6894 362.151 40.809 369.192 44.8876C378.673 50.3806 388.013 56.136 397.662 61.3164C416.067 71.1974 425.099 86.2424 424.012 107.211C423.952 108.373 424.004 109.54 423.983 110.704C423.977 111.033 423.896 111.361 423.785 112.15C422.716 111.758 421.664 111.532 420.775 111.022C396.717 97.2336 372.701 83.3735 348.6 69.6613C345.826 68.083 344.643 66.4121 344.734 63.0847C345 53.4427 344.828 43.7887 344.83 33.7166Z" fill="#FDC12C"/>
<path d="M327.722 221.828C310.663 212.029 293.991 202.37 277.324 192.703C255.251 179.901 248.552 167.242 250.233 141.061C251.655 141.766 252.973 142.335 254.21 143.045C277.979 156.688 301.718 170.383 325.529 183.953C328.109 185.423 329.336 186.961 329.256 190.115C329.02 199.43 329.213 208.755 329.125 218.074C329.113 219.374 328.465 220.668 327.722 221.828Z" fill="#FDC12C"/>
<path d="M216.22 289.81C221.012 297.104 222.485 304.675 220.747 313.278C205.869 313.278 191.115 313.278 176.337 313.278C176.92 320.892 180.727 325.897 187.298 328.062C195.177 330.659 201.596 328.452 208.128 320.638C211.682 322.339 215.345 324.092 218.983 325.832C214.662 336.863 202.903 342.526 188.14 340.985C175.329 339.648 164.291 328.915 162.123 315.687C159.497 299.666 166.471 285.611 179.982 279.69C192.799 274.075 206.664 277.853 216.22 289.81ZM195.494 302.484C199.05 302.484 202.605 302.484 206.226 302.484C205.281 293.752 199.448 288.801 191.222 289.006C183.487 289.198 177.566 294.674 177.097 302.484C182.91 302.484 188.702 302.484 195.494 302.484Z" fill="#F3F3F3"/>
<path d="M370.94 327.555C380.012 330.587 387.329 328.838 393.039 320.581C396.698 322.321 400.355 324.061 405.361 326.441C401.788 330.088 399.144 333.698 395.68 336.152C385.258 343.535 369.504 342.957 359.156 335.308C348.419 327.372 343.974 312.381 348.241 298.502C352.102 285.945 363.124 277.634 376.54 277.164C395.434 276.502 410.368 294.875 405.516 313.32C390.87 313.32 376.119 313.32 361.188 313.32C361.84 320.018 364.863 324.602 370.94 327.555ZM390.585 297.658C386.531 290.615 380.191 287.552 373.241 289.279C366.909 290.852 362.533 295.925 362.213 302.16C371.908 302.16 381.595 302.16 391.574 302.16C391.319 300.683 391.126 299.57 390.585 297.658Z" fill="#F3F3F3"/>
<path d="M611.846 277C611.846 286.156 611.846 294.811 611.846 304.644C617.629 298.467 623 293 627.724 287.385C635 278.5 642.192 277.602 652.02 279.327C645.67 286.346 639.586 293.361 633.148 300.034C630.759 302.511 630.533 304.192 632.395 307.114C639.152 317.721 645.597 328.526 652.621 340.009C647.595 340.009 643.5 340 639 340C638 340 637.753 340.2 637 339C632.231 331.396 626.24 321.874 620.96 313.149C617.76 317.257 613.656 320.644 612.19 324.933C610.716 329.248 611 334.459 611 339.643C606.422 339.643 602.906 339.643 598.253 339.643C598.253 311.822 598.253 283.906 598.253 255.777C602.698 255.777 607.107 255.777 611.846 255.777C611.846 262.883 611.846 269.692 611.846 277Z" fill="#F4F4F4"/>
<path d="M375.061 427.354C385.173 431.207 390.597 429.712 398.544 421.004C401.994 422.679 405.532 424.397 409.502 426.324C406.247 434.164 400.169 438.219 392.581 440.378C375.921 445.118 359.723 437.173 353.958 421.539C347.881 405.055 354.814 386.528 370.096 380.182C381.145 375.593 392.066 376.544 401.442 384.658C410.202 392.239 413.23 401.975 411.1 413.849C403.608 413.849 396.327 413.849 389.047 413.849C381.723 413.849 374.399 413.849 366.503 413.849C366.942 419.994 369.652 424.259 375.061 427.354ZM372.658 402.999C380.695 402.999 388.732 402.999 396.865 402.999C395.213 393.997 389.148 388.729 381.521 389.18C373.581 389.649 367.736 395.22 367.238 402.999C368.736 402.999 370.221 402.999 372.658 402.999Z" fill="#F3F3F3"/>
<path d="M122.514 379.422C128.303 378.855 133.829 377.677 139.165 378.255C150.758 379.512 158.144 387.938 158.45 399.943C158.786 413.094 158.527 426.26 158.527 439.802C154.159 439.802 149.934 439.802 145.428 439.802C145.275 438.386 145.105 436.8 144.88 434.709C136.751 442.013 127.554 443.178 117.775 440.065C109.857 437.545 105.286 431.451 105.039 423.954C104.809 416.934 108.553 410.995 116.567 408.196C124.212 405.525 132.265 403.999 140.167 402.087C144.827 400.959 145.814 397.928 142.623 394.045C138.022 388.445 127.648 388.934 122.217 395.064C121.136 396.283 120.293 397.713 119.037 399.47C115.296 397.613 111.503 395.731 107.372 393.68C110.129 386.34 115.443 382.251 122.514 379.422ZM128.197 415.406C127.238 415.667 126.221 415.801 125.331 416.21C121.823 417.824 118.993 419.999 119.741 424.468C120.492 428.953 123.88 430.137 127.737 430.446C138.578 431.314 145.785 423.206 143.883 411.944C138.908 413.028 133.945 414.111 128.197 415.406Z" fill="#F2F2F2"/>
<path d="M549.535 336.652C548.792 338.083 548.119 339.804 547.295 339.879C543.861 340.193 540.381 340.011 536.632 340.011C536.52 338.187 536.432 336.741 536.274 334.161C529.589 340.407 522.106 341.951 513.954 340.986C501.754 339.542 493.934 329.447 496.896 318.842C498.695 312.399 503.626 308.936 509.478 307.107C516.278 304.981 523.335 303.676 530.282 302.019C532.058 301.595 533.838 301.186 535.578 300.778C535.697 294.983 533.718 291.98 528.867 290.428C521.934 288.211 515.564 291.105 510.274 299.11C506.527 297.252 502.732 295.37 497.517 292.783C501.171 288.917 503.864 284.791 507.64 282.323C517.556 275.842 528.287 275.313 538.868 280.819C546.12 284.592 549.598 290.925 549.553 299.196C549.485 311.525 549.535 323.855 549.535 336.652ZM515.237 316.531C511.716 318.371 509.911 321.248 511.155 325.118C512.389 328.957 515.771 330.001 519.479 330.148C530.188 330.57 537.246 322.43 535.157 311.446C528.731 313.015 522.324 314.579 515.237 316.531Z" fill="#F2F2F2"/>
<path d="M225.662 415.788C229.521 409.977 235.12 407.511 241.187 406.019C248.286 404.273 255.463 402.844 262.782 401.239C263.87 396.316 261.652 393.159 257.486 391.252C250.68 388.136 244.093 390.808 237.422 399.322C233.675 397.449 229.867 395.545 226.075 393.65C233.143 376.67 259.511 371.778 271.465 385.332C274.246 388.485 275.291 393.221 276.903 397.32C277.359 398.478 277.007 399.958 277.007 401.291C277.01 414.112 277.009 426.933 277.009 439.965C272.651 439.965 268.533 439.965 264.212 439.965C264.089 438.399 263.963 436.783 263.777 434.407C256.678 441.132 248.496 442.602 239.597 441.011C226.939 438.748 220.789 427.887 225.662 415.788ZM258.193 426.771C262.473 422.691 263.935 417.796 262.725 411.763C256.423 413.244 250.394 414.477 244.479 416.119C240.707 417.167 237.721 419.582 238.182 423.956C238.668 428.582 242.252 430.646 246.34 430.318C250.151 430.011 253.85 428.321 258.193 426.771Z" fill="#F4F4F4"/>
<path d="M530.942 463.139C524.474 465.828 518.33 465.461 512.037 463.864C512.037 459.758 512.037 455.997 512.037 452.079C514.399 452.344 516.531 452.78 518.665 452.787C527.449 452.818 533.572 443.667 530.356 435.522C522.994 416.878 515.671 398.219 508.106 378.993C512.693 378.993 517 379 521 379C522.5 379 522 379 523 379C527.967 391.649 534.326 408.032 539.49 421.707C543.768 410.587 547.708 400.334 551.656 390.083C555.961 378.903 556 378.904 567.697 378.991C568.523 378.998 569.35 378.992 570.875 378.992C569.837 381.712 568.967 384.078 568.035 386.419C560.064 406.441 552.068 426.453 544.112 446.482C541.43 453.234 538.215 459.536 530.942 463.139Z" fill="#F5F5F5"/>
<path d="M226.99 323.997C226.99 308.708 226.99 293.918 226.99 278.978C231.439 278.978 235.551 278.978 239.881 278.978C239.967 280.727 240.047 282.33 240.163 284.697C246.88 277.802 254.616 276.152 263.23 277.967C272.394 279.898 279.792 287.887 280.02 297.177C280.368 311.307 280.111 325.451 280.111 339.799C275.636 339.799 271.362 339.799 266.473 339.799C266.473 331.035 266.496 322.269 266.463 313.503C266.448 309.513 266.591 305.496 266.193 301.538C265.455 294.183 260.288 289.889 253.012 290.182C246.184 290.456 241.179 295.184 241 302.33C240.718 313.644 240.876 324.969 240.848 336.289C240.846 337.276 240.848 338.263 240.848 339.63C236.318 339.63 231.938 339.63 226.99 339.63C226.99 334.692 226.99 329.594 226.99 323.997Z" fill="#F4F4F4"/>
<path d="M41.9634 298.759C44.3033 300.06 46.2999 301.284 48.4628 302.015C52.389 303.341 56.4608 304.236 60.3892 305.557C70.5602 308.977 75.5071 315.256 74.9825 323.818C74.4751 332.097 68.3201 338.34 58.421 340.615C44.5466 343.804 30.3727 337.621 25.0071 326.029C24.7499 325.473 24.5721 324.881 24.2432 324C27.8456 322.236 31.2117 320.588 34.8255 318.818C37.7141 324.147 41.401 328.304 47.4426 329.414C49.3749 329.769 51.4255 330.012 53.3504 329.76C56.9329 329.291 60.3663 328.099 61.0362 323.89C61.7718 319.268 58.1921 317.898 54.8425 316.812C50.2734 315.331 45.546 314.34 40.969 312.881C30.9092 309.672 26.3104 303.284 26.9918 293.796C27.5827 285.57 34.3077 279.302 44.1234 277.83C58.6617 275.65 70.4045 281.535 74.7275 293.415C71.3552 294.988 67.957 296.573 64.3546 298.253C60.5677 291.054 54.658 288.12 46.9449 289.257C41.5247 290.057 39.8984 293.187 41.9634 298.759Z" fill="#F4F4F4"/>
<path d="M164.414 420.494C160.893 406.326 162.851 393.919 174.365 384.433C186.31 374.59 205.376 375.51 215.875 386.354C218.224 388.78 219.897 391.859 222.217 395.109C217.643 397.407 213.859 399.307 210.113 401.189C203.443 391.511 196.997 388.573 188.85 391.306C181.644 393.723 176.987 401.336 177.181 410.383C177.369 419.145 182.29 426.049 189.829 428.125C198.03 430.384 204.247 427.326 210.002 417.998C213.741 419.939 217.502 421.891 221.196 423.808C218.494 433.688 208.211 440.906 196.359 441.523C181.368 442.304 169.941 434.868 164.414 420.494Z" fill="#F3F3F3"/>
<path d="M135.104 295.854C131.498 297.622 128.246 299.233 125.018 300.832C118.879 291.325 112.906 288.483 104.423 290.908C96.9566 293.043 92.1588 300.308 92.1811 309.444C92.203 318.403 97.2718 325.875 104.679 327.869C112.782 330.051 119.165 326.931 124.968 317.753C128.74 319.641 132.542 321.545 136.67 323.612C132.85 333.001 125.968 338.085 116.746 340.411C100.076 344.614 83.3911 334.966 78.9643 318.584C74.1183 300.651 83.2551 283.338 100.093 278.546C113.368 274.768 127.858 279.715 134.354 290.45C135.227 291.893 135.114 293.932 135.104 295.854Z" fill="#F3F3F3"/>
<path d="M330.194 322.057C331.176 320.491 331.931 319.223 332.871 317.644C336.748 319.613 340.536 321.535 344.264 323.427C341.131 335.187 327.916 342.488 312.934 341.006C298.389 339.567 286.873 327.296 285.949 312.252C284.901 295.184 294.397 281.436 309.528 278.115C324.767 274.77 339.117 281.503 344.533 295.044C340.687 296.989 336.78 298.965 332.882 300.937C328.024 292.335 321.832 288.927 314.186 290.442C306.586 291.947 301.394 297.996 300.256 306.673C299.152 315.088 303.29 323.522 310.156 326.848C316.825 330.079 324.286 328.386 330.194 322.057Z" fill="#F3F3F3"/>
<path d="M344.877 176.587C354.971 170.443 365.173 164.748 375.739 159.019C376.255 173.445 376.45 187.907 376.468 202.368C376.47 203.391 375.392 204.804 374.426 205.377C365.01 210.963 355.512 216.409 344.986 222.504C344.986 206.749 344.986 191.893 344.877 176.587Z" fill="#DAA327"/>
<path d="M328.937 76.5406C320.732 81.798 312.458 86.5524 304.243 91.4067C302.443 92.4702 300.854 93.8897 299.106 95.4712C298.502 94.4071 297.504 93.0213 297.491 91.6265C297.371 78.6328 297.371 65.637 297.489 52.6432C297.502 51.1813 298.022 48.9853 299.044 48.3863C308.617 42.7736 318.351 37.4351 328.889 31.5411C328.889 46.9589 328.889 61.5162 328.937 76.5406Z" fill="#DAA327"/>
<path d="M392.048 149.494C402.115 143.242 412.318 137.44 422.725 131.382C423.217 131.472 423.758 131.82 423.757 132.166C423.737 140.488 424.395 148.895 423.442 157.114C421.276 175.775 409.834 187.451 392.184 195.15C392.184 179.733 392.184 164.839 392.048 149.494Z" fill="#DAA327"/>
<path d="M282.28 104.322C277.829 107.076 273.028 109.198 268.52 111.823C262.911 115.09 257.545 118.773 252.041 122.627C251.34 122.174 250.07 121.352 250.092 120.567C250.375 110.796 249.666 100.798 251.53 91.3133C254.719 75.0756 266.03 65.1006 281.58 58.4562C281.58 64.7843 281.522 70.6807 281.593 76.5754C281.702 85.6886 281.9 94.8007 282.28 104.322Z" fill="#DAA327"/>
<path d="M572.215 298.973C571.791 308.348 571.445 317.316 571.215 326.287C571.1 330.767 571.195 335.253 571.195 339.871C566.565 339.871 562.266 339.871 557.708 339.871C557.708 319.61 557.708 299.498 557.708 279.094C561.78 279.094 565.877 279.094 570.268 279.094C570.46 280.828 570.649 282.539 570.856 284.413C578.555 278.305 582.654 277.17 592.326 278.42C592.326 282.174 592.326 285.961 592.326 290.569C584.662 290.454 576.332 289.599 572.215 298.973Z" fill="#EEEEEE"/>
<path d="M141.811 326.981C141.811 310.733 141.811 294.982 141.811 279.022C146.403 279.022 150.655 279.022 155.225 279.022C155.225 299.291 155.225 319.446 155.225 339.81C150.832 339.81 146.563 339.81 141.811 339.81C141.811 335.684 141.811 331.581 141.811 326.981Z" fill="#F0F0F0"/>
<path d="M155.5 271C154.333 271 154 271 153 271C149.5 271 145.891 271.021 142.114 271.021C142.114 265.817 142.114 260.808 142.114 255.698C146.543 255.698 150.773 255.698 155.549 255.698C155.549 259.69 155.5 266.774 155.5 271Z" fill="#EEEEEE"/>
</svg>
