<svg viewBox="0 0 1440 880" fill="none" xmlns="http://www.w3.org/2000/svg">
    <path opacity="0.3" fill-rule="evenodd" clip-rule="evenodd" d="M-909.5 0H-910V0.5V76.1154V151.731V227.346V302.962V378.577V454.192V529.808V605.423V681.038V756.654V832.269V907.885V983.5V984H-909.5L-828.018 984H-746.536H-665.054H-583.571H-502.089H-420.607L-339.268 984L-339.125 984L-338.768 984L-257.643 984H-257.286H-176.161H-175.804H-94.6785H-94.3216H-13.1962H-12.8395H68.2861H68.6427H149.768H150.125H150.268H231.607H313.089H394.571H476.053H557.536H639.018L720 984L720.5 984H721H801.982H883.464H964.947H1046.43H1127.91H1209.39L1290.73 984L1290.88 984L1291.23 984L1372.36 984H1372.71H1453.84H1454.2H1535.32H1535.68H1616.8H1617.16H1698.29H1698.64H1779.77H1780.12H1780.27H1861.61H1943.09H2024.57H2106.05H2187.54H2269.02H2350.5H2351V983.5V0.5V0H2350.5H2269.02H2187.54H2106.05H2024.57H1943.09H1861.61H1780.27H1780.12H1779.77H1698.64H1698.29H1617.16H1616.8H1535.68H1535.32H1454.2H1453.84H1372.71H1372.36H1291.23H1290.88H1290.73H1209.39H1127.91H1046.43H964.947H883.464H801.982H721H720.5H720H639.018H557.536H476.053H394.571H313.089H231.607H150.268H150.125H149.768H68.6427H68.2861H-12.8394H-13.1962H-94.3215H-94.6784H-175.804H-176.161H-257.286H-257.643H-338.768H-339.125H-339.268H-420.607H-502.089H-583.571H-665.053H-746.536H-828.018H-909.5ZM720 1H639.518V75.6154H720V1ZM720 76.6154H639.518V151.231H720V76.6154ZM720 152.231H639.518V226.846H720V152.231ZM720 227.846H639.518V302.462H720V227.846ZM720 303.462H639.518V378.077H720V303.462ZM720 379.077H639.518V453.692H720V379.077ZM720 454.692H639.518V529.308H720V454.692ZM720 530.308H639.518V604.923H720V530.308ZM720 605.923H639.518V680.538H720V605.923ZM720 681.538H639.518V756.154H720V681.538ZM720 757.154H639.518V831.769H720V757.154ZM720 832.769H639.518V907.385H720V832.769ZM720 908.385H639.518V983H720V908.385ZM721 1V75.6154H801.482V1H721ZM721 76.6154V151.231H801.482V76.6154H721ZM721 152.231V226.846H801.482V152.231H721ZM721 227.846V302.462H801.482V227.846H721ZM721 303.462V378.077H801.482V303.462H721ZM721 379.077V453.692H801.482V379.077H721ZM721 454.692V529.308H801.482V454.692H721ZM721 530.308V604.923H801.482V530.308H721ZM721 605.923V680.538H801.482V605.923H721ZM721 681.538V756.154H801.482V681.538H721ZM721 757.154V831.769H801.482V757.154H721ZM721 832.769V907.385H801.482V832.769H721ZM721 908.385V983L801.482 983V908.385H721ZM-258.143 983H-338.268V908.385H-258.143V983ZM-258.143 907.385H-338.268V832.769H-258.143V907.385ZM-258.143 831.769H-338.268V757.154H-258.143V831.769ZM-258.143 756.154H-338.268V681.538H-258.143V756.154ZM-258.143 680.538H-338.268V605.923H-258.143V680.538ZM-258.143 604.923H-338.268V530.308H-258.143V604.923ZM-258.143 529.308H-338.268V454.692H-258.143L-258.143 529.308ZM-258.143 453.692H-338.268V379.077H-258.143V453.692ZM-258.143 378.077H-338.268V303.462H-258.143V378.077ZM-258.143 302.462H-338.268V227.846H-258.143V302.462ZM-338.268 226.846V152.231H-258.143V226.846H-338.268ZM-176.661 983H-256.786V908.385H-176.661V983ZM-176.661 907.385H-256.786L-256.786 832.769H-176.661V907.385ZM-176.661 831.769H-256.786V757.154H-176.661V831.769ZM-176.661 756.154H-256.786V681.538H-176.661V756.154ZM-176.661 680.538H-256.786V605.923H-176.661V680.538ZM-176.661 604.923H-256.786V530.308H-176.661V604.923ZM-176.661 529.308H-256.786V454.692H-176.661V529.308ZM-176.661 453.692H-256.786V379.077H-176.661V453.692ZM-176.661 378.077H-256.786V303.462H-176.661V378.077ZM-176.661 302.462H-256.786V227.846H-176.661V302.462ZM-256.786 226.846V152.231L-176.661 152.231V226.846H-256.786ZM-95.1785 983H-175.304V908.385H-95.1785V983ZM-95.1785 907.385H-175.304V832.769H-95.1785V907.385ZM-95.1785 831.769H-175.304V757.154H-95.1785V831.769ZM-95.1785 756.154H-175.304V681.538H-95.1785V756.154ZM-95.1785 680.538H-175.304V605.923H-95.1785V680.538ZM-95.1785 604.923H-175.304V530.308H-95.1785V604.923ZM-95.1785 529.308H-175.304V454.692H-95.1784L-95.1785 529.308ZM-95.1784 453.692H-175.304V379.077H-95.1784V453.692ZM-175.304 378.077V303.462H-95.1784V378.077H-175.304ZM-13.6962 983H-93.8216V908.385H-13.6962V983ZM-13.6962 907.385H-93.8216V832.769H-13.6962V907.385ZM-13.6962 831.769H-93.8216V757.154H-13.6962V831.769ZM-13.6962 756.154H-93.8216V681.538H-13.6962V756.154ZM-13.6962 680.538H-93.8216V605.923H-13.6962V680.538ZM-13.6962 604.923H-93.8216V530.308H-13.6962V604.923ZM-13.6962 529.308H-93.8216V454.692H-13.6962V529.308ZM-13.6962 453.692H-93.8216V379.077L-13.6962 379.077V453.692ZM-93.8216 378.077V303.462L-13.6962 303.462V378.077L-93.8216 378.077ZM67.7861 983H-12.3395V908.385H67.7861V983ZM67.7861 907.385H-12.3395V832.769H67.7861V907.385ZM67.7861 831.769H-12.3395V757.154H67.7861V831.769ZM67.7861 756.154H-12.3395V681.538H67.7861V756.154ZM67.7861 680.538H-12.3395V605.923H67.7861V680.538ZM67.7861 604.923H-12.3395V530.308H67.7861V604.923ZM67.7861 529.308H-12.3395L-12.3394 454.692H67.7861V529.308ZM67.7861 453.692H-12.3394V379.077H67.7861V453.692ZM67.7861 378.077H-12.3394V303.462H67.7861V378.077ZM67.7861 302.462H-12.3394V227.846H67.7861V302.462ZM-12.3394 226.846V152.231L67.7861 152.231V226.846H-12.3394ZM149.268 983H69.1427V908.385H149.268V983ZM149.268 907.385H69.1427V832.769H149.268V907.385ZM149.268 831.769H69.1427V757.154H149.268V831.769ZM149.268 756.154H69.1427V681.538H149.268V756.154ZM149.268 680.538H69.1427V605.923H149.268V680.538ZM149.268 604.923H69.1427V530.308H149.268V604.923ZM149.268 529.308H69.1427V454.692H149.268V529.308ZM149.268 453.692H69.1427V379.077H149.268V453.692ZM149.268 378.077H69.1427V303.462H149.268V378.077ZM149.268 302.462H69.1427V227.846H149.268V302.462ZM69.1427 226.846V152.231H149.268V226.846H69.1427ZM150.625 983V908.385L231.107 908.385V983H150.625ZM232.107 983V908.385H312.589V983H232.107ZM232.107 907.385H312.589V832.769H232.107V907.385ZM313.589 983V908.385H394.071V983H313.589ZM313.589 907.385H394.071V832.769H313.589V907.385ZM395.071 983V908.385H475.553V983H395.071ZM395.071 907.385H475.553V832.769H395.071V907.385ZM476.553 983V908.385H557.036V983H476.553ZM476.553 907.385H557.036V832.769H476.553V907.385ZM558.036 983V908.385H638.518V983H558.036ZM558.036 907.385H638.518V832.769H558.036V907.385ZM638.518 757.154V831.769H558.036V757.154H638.518ZM557.036 757.154V831.769H476.553V757.154H557.036ZM475.553 757.154V831.769H395.071V757.154H475.553ZM394.071 757.154V831.769H313.589V757.154H394.071ZM312.589 757.154V831.769H232.107V757.154H312.589ZM231.107 757.154V831.769L150.625 831.769V757.154L231.107 757.154ZM231.107 756.154L150.625 756.154L150.625 681.538H231.107V756.154ZM231.107 680.538H150.625V605.923L231.107 605.923V680.538ZM231.107 604.923L150.625 604.923V530.308H231.107V604.923ZM231.107 529.308H150.625V454.692L231.107 454.692V529.308ZM231.107 453.692L150.625 453.692V379.077H231.107V453.692ZM231.107 378.077H150.625V303.462H231.107V378.077ZM231.107 302.462H150.625V227.846L231.107 227.846V302.462ZM231.107 226.846L150.625 226.846V152.231H231.107V226.846ZM150.625 75.6154V1H231.107V75.6154H150.625ZM232.107 75.6154V1H312.589V75.6154L232.107 75.6154ZM313.589 75.6154V1H394.071V75.6154H313.589ZM395.071 75.6154V1H475.553V75.6154L395.071 75.6154ZM476.553 75.6154V1H557.036V75.6154H476.553ZM558.036 75.6154V1H638.518V75.6154L558.036 75.6154ZM638.518 681.538V756.154H558.036V681.538H638.518ZM557.036 681.538V756.154H476.553V681.538H557.036ZM475.553 681.538V756.154H395.071V681.538H475.553ZM394.071 681.538V756.154H313.589V681.538H394.071ZM312.589 681.538V756.154H232.107V681.538H312.589ZM312.589 680.538H232.107V605.923H312.589V680.538ZM312.589 604.923H232.107V530.308H312.589V604.923ZM312.589 529.308H232.107V454.692H312.589V529.308ZM312.589 453.692H232.107V379.077H312.589V453.692ZM312.589 378.077H232.107V303.462H312.589V378.077ZM312.589 302.462H232.107V227.846H312.589V302.462ZM312.589 226.846H232.107V152.231H312.589V226.846ZM312.589 151.231H232.107V76.6154L312.589 76.6154V151.231ZM150.625 76.6154H231.107V151.231H150.625V76.6154ZM313.589 151.231V76.6154H394.071V151.231L313.589 151.231ZM395.071 151.231V76.6154L475.553 76.6154V151.231H395.071ZM476.553 151.231V76.6154H557.036V151.231H476.553ZM558.036 151.231V76.6154L638.518 76.6154V151.231L558.036 151.231ZM558.036 152.231L638.518 152.231V226.846H558.036V152.231ZM558.036 227.846H638.518V302.462H558.036V227.846ZM558.036 303.462H638.518V378.077H558.036V303.462ZM558.036 379.077H638.518V453.692H558.036V379.077ZM558.036 454.692H638.518V529.308H558.036V454.692ZM558.036 530.308H638.518V604.923H558.036V530.308ZM558.036 605.923H638.518V680.538H558.036V605.923ZM557.036 605.923V680.538H476.553V605.923H557.036ZM475.553 605.923V680.538H395.071V605.923H475.553ZM394.071 605.923V680.538H313.589V605.923H394.071ZM394.071 604.923H313.589V530.308H394.071V604.923ZM394.071 529.308H313.589V454.692H394.071V529.308ZM394.071 453.692H313.589V379.077H394.071V453.692ZM394.071 378.077H313.589V303.462H394.071V378.077ZM394.071 302.462H313.589V227.846H394.071V302.462ZM394.071 226.846H313.589V152.231L394.071 152.231V226.846ZM395.071 226.846V152.231H475.553V226.846H395.071ZM476.553 226.846V152.231H557.036V226.846L476.553 226.846ZM476.553 227.846L557.036 227.846V302.462H476.553V227.846ZM476.553 303.462H557.036V378.077H476.553V303.462ZM476.553 379.077H557.036V453.692H476.553V379.077ZM476.553 454.692H557.036V529.308H476.553L476.553 454.692ZM476.553 530.308H557.036V604.923H476.553V530.308ZM475.553 530.308V604.923H395.071V530.308H475.553ZM475.553 529.308H395.071V454.692H475.553L475.553 529.308ZM475.553 453.692H395.071V379.077L475.553 379.077V453.692ZM475.553 378.077L395.071 378.077V303.462L475.553 303.462V378.077ZM475.553 302.462L395.071 302.462V227.846H475.553V302.462ZM69.1427 1H149.268V75.6154L69.1427 75.6154V1ZM149.268 151.231V76.6154L69.1427 76.6154V151.231H149.268ZM-12.3394 1H67.7861V75.6154H-12.3394V1ZM67.7861 151.231V76.6154H-12.3394V151.231L67.7861 151.231ZM-93.8215 1H-13.6962V75.6154L-93.8215 75.6154V1ZM-13.6962 76.6154V151.231H-93.8215V76.6154L-13.6962 76.6154ZM-175.304 1H-95.1784V75.6154H-175.304V1ZM-95.1784 76.6154V151.231H-175.304V76.6154H-95.1784ZM-256.786 1H-176.661V75.6154L-256.786 75.6154V1ZM-176.661 151.231V76.6154L-256.786 76.6154V151.231L-176.661 151.231ZM-338.268 1H-258.143V75.6154H-338.268V1ZM-258.143 151.231V76.6154H-338.268V151.231H-258.143ZM-420.107 1H-339.625V75.6154H-420.107V1ZM-420.107 76.6154H-339.625V151.231H-420.107V76.6154ZM-420.107 152.231H-339.625V226.846L-420.107 226.846V152.231ZM-420.107 227.846L-339.625 227.846V302.462H-420.107L-420.107 227.846ZM-420.107 303.462H-339.625V378.077H-420.107V303.462ZM-420.107 379.077H-339.625V453.692L-420.107 453.692V379.077ZM-420.107 454.692L-339.625 454.692V529.308H-420.107V454.692ZM-420.107 530.308H-339.625V604.923L-420.107 604.923V530.308ZM-420.107 605.923L-339.625 605.923V680.538H-420.107V605.923ZM-420.107 681.538H-339.625V756.154L-420.107 756.154L-420.107 681.538ZM-420.107 757.154L-339.625 757.154V831.769L-420.107 831.769V757.154ZM-420.107 832.769L-339.625 832.769V907.385L-420.107 907.385V832.769ZM-339.625 983V908.385L-420.107 908.385V983H-339.625ZM-421.107 832.769V907.385H-501.589V832.769H-421.107ZM-421.107 908.385H-501.589V983H-421.107V908.385ZM-502.589 832.769V907.385H-583.071V832.769H-502.589ZM-502.589 908.385H-583.071V983H-502.589V908.385ZM-584.071 832.769V907.385H-664.554V832.769H-584.071ZM-584.071 908.385H-664.554V983H-584.071V908.385ZM-665.554 832.769V907.385H-746.036V832.769H-665.554ZM-665.554 908.385H-746.036V983H-665.554V908.385ZM-747.036 832.769V907.385H-827.518L-827.518 832.769H-747.036ZM-747.036 908.385H-827.518V983H-747.036V908.385ZM-828.518 832.769L-828.518 907.385H-909V832.769H-828.518ZM-828.518 908.385H-909V983L-828.518 983V908.385ZM-828.518 831.769H-909V757.154H-828.518V831.769ZM-828.518 756.154H-909V681.538H-828.518L-828.518 756.154ZM-828.518 680.538H-909V605.923H-828.518V680.538ZM-828.518 604.923H-909V530.308H-828.518V604.923ZM-828.518 529.308H-909V454.692H-828.518L-828.518 529.308ZM-828.518 453.692H-909V379.077H-828.518V453.692ZM-828.518 378.077H-909V303.462H-828.518V378.077ZM-828.518 302.462H-909V227.846H-828.518L-828.518 302.462ZM-828.518 226.846H-909V152.231H-828.518V226.846ZM-828.518 151.231H-909V76.6154H-828.518L-828.518 151.231ZM-828.518 75.6154H-909V1H-828.518V75.6154ZM-827.518 75.6154V1H-747.036V75.6154L-827.518 75.6154ZM-746.036 75.6154V1H-665.553V75.6154H-746.036ZM-664.553 75.6154V1H-584.071V75.6154L-664.553 75.6154ZM-583.071 75.6154V1H-502.589V75.6154H-583.071ZM-501.589 75.6154V1H-421.107V75.6154L-501.589 75.6154ZM-501.589 76.6154L-421.107 76.6154V151.231H-501.589V76.6154ZM-501.589 152.231H-421.107V226.846H-501.589V152.231ZM-501.589 227.846H-421.107L-421.107 302.462H-501.589V227.846ZM-501.589 303.462H-421.107V378.077H-501.589V303.462ZM-501.589 379.077H-421.107V453.692H-501.589V379.077ZM-501.589 454.692H-421.107V529.308H-501.589L-501.589 454.692ZM-501.589 530.308H-421.107V604.923H-501.589V530.308ZM-501.589 605.923H-421.107V680.538H-501.589V605.923ZM-501.589 681.538H-421.107L-421.107 756.154H-501.589V681.538ZM-501.589 757.154H-421.107V831.769H-501.589V757.154ZM-502.589 757.154V831.769H-583.071V757.154H-502.589ZM-584.071 757.154V831.769H-664.554L-664.554 757.154H-584.071ZM-665.554 757.154L-665.554 831.769H-746.036L-746.036 757.154H-665.554ZM-747.036 757.154L-747.036 831.769H-827.518V757.154H-747.036ZM-747.036 756.154H-827.518L-827.518 681.538H-747.036V756.154ZM-747.036 680.538H-827.518V605.923H-747.036V680.538ZM-747.036 604.923H-827.518V530.308H-747.036V604.923ZM-747.036 529.308H-827.518L-827.518 454.692H-747.036L-747.036 529.308ZM-747.036 453.692H-827.518V379.077H-747.036V453.692ZM-747.036 378.077H-827.518V303.462H-747.036V378.077ZM-747.036 302.462H-827.518L-827.518 227.846H-747.036V302.462ZM-747.036 226.846H-827.518V152.231L-747.036 152.231L-747.036 226.846ZM-747.036 151.231L-827.518 151.231L-827.518 76.6154L-747.036 76.6154V151.231ZM-746.036 151.231V76.6154H-665.553V151.231H-746.036ZM-664.553 151.231V76.6154L-584.071 76.6154V151.231H-664.553ZM-583.071 151.231V76.6154H-502.589V151.231L-583.071 151.231ZM-583.071 152.231L-502.589 152.231V226.846H-583.071V152.231ZM-583.071 227.846H-502.589V302.462H-583.071V227.846ZM-583.071 303.462H-502.589V378.077H-583.071V303.462ZM-583.071 379.077H-502.589V453.692H-583.071V379.077ZM-583.071 454.692H-502.589L-502.589 529.308H-583.071L-583.071 454.692ZM-583.071 530.308H-502.589V604.923H-583.071V530.308ZM-583.071 605.923H-502.589V680.538H-583.071V605.923ZM-583.071 681.538H-502.589V756.154H-583.071V681.538ZM-584.071 681.538V756.154H-664.554V681.538H-584.071ZM-665.554 681.538V756.154H-746.036V681.538H-665.554ZM-665.554 680.538H-746.036V605.923H-665.554V680.538ZM-665.554 604.923H-746.036V530.308H-665.554V604.923ZM-665.554 529.308H-746.036L-746.036 454.692H-665.553L-665.554 529.308ZM-665.553 453.692H-746.036V379.077H-665.553V453.692ZM-665.553 378.077H-746.036V303.462H-665.553V378.077ZM-665.553 302.462H-746.036V227.846L-665.553 227.846V302.462ZM-665.553 226.846L-746.036 226.846L-746.036 152.231H-665.553L-665.553 226.846ZM-664.553 226.846L-664.553 152.231H-584.071V226.846H-664.553ZM-664.553 227.846H-584.071V302.462L-664.553 302.462V227.846ZM-664.553 303.462L-584.071 303.462V378.077L-664.553 378.077V303.462ZM-664.553 379.077L-584.071 379.077V453.692H-664.553V379.077ZM-664.553 454.692H-584.071L-584.071 529.308H-664.554L-664.553 454.692ZM-664.554 530.308H-584.071V604.923H-664.554V530.308ZM-664.554 605.923H-584.071V680.538H-664.554V605.923ZM-175.304 302.462V227.846L-95.1784 227.846V302.462H-175.304ZM-93.8216 302.462V227.846H-13.6962V302.462L-93.8216 302.462ZM-13.6962 226.846V152.231H-93.8215L-93.8216 226.846H-13.6962ZM-95.1784 226.846V152.231H-175.304V226.846L-95.1784 226.846ZM150.625 832.769V907.385L231.107 907.385V832.769L150.625 832.769ZM1371.86 983H1291.73V908.385H1371.86V983ZM1371.86 907.385H1291.73V832.769H1371.86V907.385ZM1371.86 831.769H1291.73V757.154H1371.86V831.769ZM1371.86 756.154H1291.73V681.538H1371.86V756.154ZM1371.86 680.538H1291.73V605.923H1371.86V680.538ZM1371.86 604.923H1291.73V530.308H1371.86V604.923ZM1371.86 529.308H1291.73V454.692H1371.86V529.308ZM1371.86 453.692H1291.73V379.077H1371.86V453.692ZM1371.86 378.077H1291.73V303.462H1371.86V378.077ZM1371.86 302.462H1291.73V227.846H1371.86V302.462ZM1291.73 226.846V152.231H1371.86V226.846H1291.73ZM1453.34 983H1373.21V908.385H1453.34V983ZM1453.34 907.385H1373.21V832.769H1453.34V907.385ZM1453.34 831.769H1373.21V757.154H1453.34V831.769ZM1453.34 756.154H1373.21V681.538H1453.34V756.154ZM1453.34 680.538H1373.21V605.923H1453.34V680.538ZM1453.34 604.923H1373.21V530.308H1453.34V604.923ZM1453.34 529.308H1373.21V454.692H1453.34V529.308ZM1453.34 453.692H1373.21V379.077H1453.34V453.692ZM1453.34 378.077H1373.21V303.462H1453.34V378.077ZM1453.34 302.462H1373.21V227.846H1453.34V302.462ZM1373.21 226.846V152.231L1453.34 152.231V226.846H1373.21ZM1534.82 983H1454.7V908.385H1534.82V983ZM1534.82 907.385H1454.7V832.769H1534.82V907.385ZM1534.82 831.769H1454.7V757.154H1534.82V831.769ZM1534.82 756.154H1454.7V681.538H1534.82V756.154ZM1534.82 680.538H1454.7V605.923H1534.82V680.538ZM1534.82 604.923H1454.7V530.308H1534.82V604.923ZM1534.82 529.308H1454.7V454.692H1534.82V529.308ZM1534.82 453.692H1454.7V379.077H1534.82V453.692ZM1454.7 378.077V303.462H1534.82V378.077H1454.7ZM1616.3 983H1536.18V908.385H1616.3V983ZM1616.3 907.385H1536.18V832.769H1616.3V907.385ZM1616.3 831.769H1536.18V757.154H1616.3V831.769ZM1616.3 756.154H1536.18V681.538H1616.3V756.154ZM1616.3 680.538H1536.18V605.923H1616.3V680.538ZM1616.3 604.923H1536.18V530.308H1616.3V604.923ZM1616.3 529.308H1536.18V454.692H1616.3V529.308ZM1616.3 453.692H1536.18V379.077L1616.3 379.077V453.692ZM1536.18 378.077V303.462L1616.3 303.462V378.077L1536.18 378.077ZM1697.79 983H1617.66V908.385H1697.79V983ZM1697.79 907.385H1617.66V832.769H1697.79V907.385ZM1697.79 831.769H1617.66V757.154H1697.79V831.769ZM1697.79 756.154H1617.66V681.538H1697.79V756.154ZM1697.79 680.538H1617.66V605.923H1697.79V680.538ZM1697.79 604.923H1617.66V530.308H1697.79V604.923ZM1697.79 529.308H1617.66V454.692H1697.79V529.308ZM1697.79 453.692H1617.66V379.077H1697.79V453.692ZM1697.79 378.077H1617.66V303.462H1697.79V378.077ZM1697.79 302.462H1617.66V227.846H1697.79V302.462ZM1617.66 226.846V152.231L1697.79 152.231V226.846H1617.66ZM1779.27 983H1699.14V908.385H1779.27V983ZM1779.27 907.385H1699.14V832.769H1779.27V907.385ZM1779.27 831.769H1699.14V757.154H1779.27V831.769ZM1779.27 756.154H1699.14V681.538H1779.27V756.154ZM1779.27 680.538H1699.14V605.923H1779.27V680.538ZM1779.27 604.923H1699.14V530.308H1779.27V604.923ZM1779.27 529.308H1699.14V454.692H1779.27V529.308ZM1779.27 453.692H1699.14V379.077H1779.27V453.692ZM1779.27 378.077H1699.14V303.462H1779.27V378.077ZM1779.27 302.462H1699.14V227.846H1779.27V302.462ZM1699.14 226.846V152.231H1779.27V226.846H1699.14ZM1780.62 983V908.385L1861.11 908.385V983H1780.62ZM1862.11 983V908.385H1942.59V983H1862.11ZM1862.11 907.385H1942.59V832.769H1862.11V907.385ZM1943.59 983V908.385H2024.07V983H1943.59ZM1943.59 907.385H2024.07V832.769H1943.59V907.385ZM2025.07 983V908.385H2105.55V983H2025.07ZM2025.07 907.385H2105.55V832.769H2025.07V907.385ZM2106.55 983V908.385H2187.04V983H2106.55ZM2106.55 907.385H2187.04V832.769H2106.55V907.385ZM2188.04 983V908.385H2268.52V983H2188.04ZM2188.04 907.385H2268.52V832.769H2188.04V907.385ZM2269.52 983V908.385H2350V983H2269.52ZM2269.52 907.385H2350V832.769H2269.52V907.385ZM2350 757.154V831.769H2269.52V757.154H2350ZM2268.52 757.154V831.769H2188.04V757.154H2268.52ZM2187.04 757.154V831.769H2106.55V757.154H2187.04ZM2105.55 757.154V831.769H2025.07V757.154H2105.55ZM2024.07 757.154V831.769H1943.59V757.154H2024.07ZM1942.59 757.154V831.769H1862.11V757.154H1942.59ZM1861.11 757.154V831.769L1780.62 831.769V757.154L1861.11 757.154ZM1861.11 756.154L1780.62 756.154L1780.62 681.538H1861.11V756.154ZM1861.11 680.538H1780.62V605.923L1861.11 605.923V680.538ZM1861.11 604.923L1780.62 604.923V530.308H1861.11V604.923ZM1861.11 529.308H1780.62V454.692L1861.11 454.692V529.308ZM1861.11 453.692L1780.62 453.692V379.077H1861.11V453.692ZM1861.11 378.077H1780.62V303.462H1861.11V378.077ZM1861.11 302.462H1780.62V227.846L1861.11 227.846V302.462ZM1861.11 226.846L1780.62 226.846V152.231H1861.11V226.846ZM1780.62 75.6154V1H1861.11V75.6154H1780.62ZM1862.11 75.6154V1H1942.59V75.6154L1862.11 75.6154ZM1943.59 75.6154V1H2024.07V75.6154H1943.59ZM2025.07 75.6154V1H2105.55V75.6154L2025.07 75.6154ZM2106.55 75.6154V1H2187.04V75.6154H2106.55ZM2188.04 75.6154V1H2268.52V75.6154L2188.04 75.6154ZM2269.52 75.6154V1H2350V75.6154H2269.52ZM2269.52 76.6154H2350V151.231H2269.52V76.6154ZM2269.52 152.231H2350V226.846H2269.52V152.231ZM2269.52 227.846H2350V302.462H2269.52V227.846ZM2269.52 303.462H2350V378.077H2269.52V303.462ZM2269.52 379.077H2350V453.692H2269.52V379.077ZM2269.52 454.692H2350V529.308H2269.52V454.692ZM2269.52 530.308H2350V604.923H2269.52V530.308ZM2269.52 605.923H2350V680.538H2269.52V605.923ZM2269.52 681.538H2350V756.154H2269.52V681.538ZM2268.52 681.538V756.154H2188.04V681.538H2268.52ZM2187.04 681.538V756.154H2106.55V681.538H2187.04ZM2105.55 681.538V756.154H2025.07V681.538H2105.55ZM2024.07 681.538V756.154H1943.59V681.538H2024.07ZM1942.59 681.538V756.154H1862.11V681.538H1942.59ZM1942.59 680.538H1862.11V605.923H1942.59V680.538ZM1942.59 604.923H1862.11V530.308H1942.59V604.923ZM1942.59 529.308H1862.11V454.692H1942.59V529.308ZM1942.59 453.692H1862.11V379.077H1942.59V453.692ZM1942.59 378.077H1862.11V303.462H1942.59V378.077ZM1942.59 302.462H1862.11V227.846H1942.59V302.462ZM1942.59 226.846H1862.11V152.231H1942.59V226.846ZM1942.59 151.231H1862.11V76.6154L1942.59 76.6154V151.231ZM1780.62 76.6154H1861.11V151.231H1780.62V76.6154ZM1943.59 151.231V76.6154H2024.07V151.231L1943.59 151.231ZM2025.07 151.231V76.6154L2105.55 76.6154V151.231H2025.07ZM2106.55 151.231V76.6154H2187.04V151.231H2106.55ZM2188.04 151.231V76.6154L2268.52 76.6154V151.231L2188.04 151.231ZM2188.04 152.231L2268.52 152.231V226.846H2188.04V152.231ZM2188.04 227.846H2268.52V302.462H2188.04V227.846ZM2188.04 303.462H2268.52V378.077H2188.04V303.462ZM2188.04 379.077H2268.52V453.692H2188.04V379.077ZM2188.04 454.692H2268.52V529.308H2188.04V454.692ZM2188.04 530.308H2268.52V604.923H2188.04V530.308ZM2188.04 605.923H2268.52V680.538H2188.04V605.923ZM2187.04 605.923V680.538H2106.55V605.923H2187.04ZM2105.55 605.923V680.538H2025.07V605.923H2105.55ZM2024.07 605.923V680.538H1943.59V605.923H2024.07ZM2024.07 604.923H1943.59V530.308H2024.07V604.923ZM2024.07 529.308H1943.59V454.692H2024.07V529.308ZM2024.07 453.692H1943.59V379.077H2024.07V453.692ZM2024.07 378.077H1943.59V303.462H2024.07V378.077ZM2024.07 302.462H1943.59V227.846H2024.07V302.462ZM2024.07 226.846H1943.59V152.231L2024.07 152.231V226.846ZM2025.07 226.846V152.231H2105.55V226.846H2025.07ZM2106.55 226.846V152.231H2187.04V226.846L2106.55 226.846ZM2106.55 227.846L2187.04 227.846V302.462H2106.55V227.846ZM2106.55 303.462H2187.04V378.077H2106.55V303.462ZM2106.55 379.077H2187.04V453.692H2106.55V379.077ZM2106.55 454.692H2187.04V529.308H2106.55L2106.55 454.692ZM2106.55 530.308H2187.04V604.923H2106.55V530.308ZM2105.55 530.308V604.923H2025.07V530.308H2105.55ZM2105.55 529.308H2025.07V454.692H2105.55L2105.55 529.308ZM2105.55 453.692H2025.07V379.077L2105.55 379.077V453.692ZM2105.55 378.077L2025.07 378.077V303.462L2105.55 303.462V378.077ZM2105.55 302.462L2025.07 302.462V227.846H2105.55V302.462ZM1699.14 1H1779.27V75.6154L1699.14 75.6154V1ZM1779.27 151.231V76.6154L1699.14 76.6154V151.231H1779.27ZM1617.66 1H1697.79V75.6154H1617.66V1ZM1697.79 151.231V76.6154H1617.66V151.231L1697.79 151.231ZM1536.18 1H1616.3V75.6154L1536.18 75.6154V1ZM1616.3 76.6154V151.231H1536.18V76.6154L1616.3 76.6154ZM1454.7 1H1534.82V75.6154H1454.7V1ZM1534.82 76.6154V151.231H1454.7V76.6154H1534.82ZM1373.21 1H1453.34V75.6154L1373.21 75.6154V1ZM1453.34 151.231V76.6154L1373.21 76.6154V151.231L1453.34 151.231ZM1291.73 1H1371.86V75.6154H1291.73V1ZM1371.86 151.231V76.6154H1291.73V151.231H1371.86ZM1209.89 1H1290.38V75.6154H1209.89V1ZM1209.89 76.6154H1290.38V151.231H1209.89V76.6154ZM1209.89 152.231H1290.38V226.846L1209.89 226.846V152.231ZM1209.89 227.846L1290.38 227.846V302.462H1209.89L1209.89 227.846ZM1209.89 303.462H1290.38V378.077H1209.89V303.462ZM1209.89 379.077H1290.38V453.692L1209.89 453.692V379.077ZM1209.89 454.692L1290.38 454.692V529.308H1209.89V454.692ZM1209.89 530.308H1290.38V604.923L1209.89 604.923V530.308ZM1209.89 605.923L1290.38 605.923V680.538H1209.89V605.923ZM1209.89 681.538H1290.38V756.154L1209.89 756.154V681.538ZM1209.89 757.154L1290.38 757.154V831.769L1209.89 831.769V757.154ZM1209.89 832.769L1290.38 832.769V907.385L1209.89 907.385V832.769ZM1290.38 983V908.385L1209.89 908.385V983H1290.38ZM1208.89 832.769V907.385H1128.41V832.769H1208.89ZM1208.89 908.385H1128.41V983H1208.89V908.385ZM1127.41 832.769V907.385H1046.93V832.769H1127.41ZM1127.41 908.385H1046.93V983H1127.41V908.385ZM1045.93 832.769V907.385H965.447V832.769H1045.93ZM1045.93 908.385H965.447V983H1045.93V908.385ZM964.447 832.769V907.385H883.964V832.769H964.447ZM964.447 908.385H883.964V983H964.447V908.385ZM882.964 832.769V907.385H802.482V832.769H882.964ZM882.964 908.385H802.482V983H882.964V908.385ZM802.482 75.6154V1H882.964V75.6154L802.482 75.6154ZM883.964 75.6154V1H964.447V75.6154H883.964ZM965.447 75.6154V1H1045.93V75.6154L965.447 75.6154ZM1046.93 75.6154V1H1127.41V75.6154H1046.93ZM1128.41 75.6154V1H1208.89V75.6154L1128.41 75.6154ZM1128.41 76.6154L1208.89 76.6154V151.231H1128.41V76.6154ZM1128.41 152.231H1208.89V226.846H1128.41V152.231ZM1128.41 227.846H1208.89L1208.89 302.462H1128.41V227.846ZM1128.41 303.462H1208.89V378.077H1128.41V303.462ZM1128.41 379.077H1208.89V453.692H1128.41V379.077ZM1128.41 454.692H1208.89V529.308H1128.41V454.692ZM1128.41 530.308H1208.89V604.923H1128.41V530.308ZM1128.41 605.923H1208.89V680.538H1128.41V605.923ZM1128.41 681.538H1208.89V756.154H1128.41V681.538ZM1128.41 757.154H1208.89V831.769H1128.41V757.154ZM1127.41 757.154V831.769H1046.93V757.154H1127.41ZM1045.93 757.154V831.769H965.447V757.154H1045.93ZM964.447 757.154V831.769H883.964V757.154H964.447ZM882.964 757.154V831.769H802.482V757.154H882.964ZM882.964 756.154H802.482V681.538H882.964V756.154ZM882.964 680.538H802.482V605.923H882.964V680.538ZM882.964 604.923H802.482V530.308H882.964V604.923ZM882.964 529.308H802.482V454.692H882.964V529.308ZM882.964 453.692H802.482V379.077H882.964V453.692ZM882.964 378.077H802.482V303.462H882.964V378.077ZM882.964 302.462H802.482V227.846H882.964V302.462ZM882.964 226.846H802.482V152.231L882.964 152.231V226.846ZM882.964 151.231L802.482 151.231V76.6154L882.964 76.6154V151.231ZM883.964 151.231V76.6154H964.447V151.231H883.964ZM965.447 151.231V76.6154L1045.93 76.6154V151.231H965.447ZM1046.93 151.231V76.6154H1127.41V151.231L1046.93 151.231ZM1046.93 152.231L1127.41 152.231V226.846H1046.93V152.231ZM1046.93 227.846H1127.41V302.462H1046.93V227.846ZM1046.93 303.462H1127.41V378.077H1046.93V303.462ZM1046.93 379.077H1127.41V453.692H1046.93V379.077ZM1046.93 454.692H1127.41V529.308H1046.93V454.692ZM1046.93 530.308H1127.41V604.923H1046.93V530.308ZM1046.93 605.923H1127.41V680.538H1046.93V605.923ZM1046.93 681.538H1127.41V756.154H1046.93V681.538ZM1045.93 681.538V756.154H965.447V681.538H1045.93ZM964.447 681.538V756.154H883.964V681.538H964.447ZM964.447 680.538H883.964V605.923H964.447V680.538ZM964.447 604.923H883.964V530.308H964.447V604.923ZM964.447 529.308H883.964V454.692H964.447V529.308ZM964.447 453.692H883.964V379.077H964.447V453.692ZM964.447 378.077H883.964V303.462H964.447V378.077ZM964.447 302.462H883.964V227.846L964.447 227.846V302.462ZM964.447 226.846L883.964 226.846V152.231H964.447V226.846ZM965.447 226.846V152.231H1045.93V226.846H965.447ZM965.447 227.846H1045.93V302.462L965.447 302.462V227.846ZM965.447 303.462L1045.93 303.462V378.077L965.447 378.077V303.462ZM965.447 379.077L1045.93 379.077V453.692H965.447V379.077ZM965.447 454.692H1045.93V529.308H965.447V454.692ZM965.447 530.308H1045.93V604.923H965.447V530.308ZM965.447 605.923H1045.93V680.538H965.447V605.923ZM1454.7 302.462V227.846L1534.82 227.846V302.462H1454.7ZM1536.18 302.462V227.846H1616.3V302.462L1536.18 302.462ZM1616.3 226.846V152.231H1536.18V226.846H1616.3ZM1534.82 226.846V152.231H1454.7V226.846L1534.82 226.846ZM1780.62 832.769V907.385L1861.11 907.385V832.769L1780.62 832.769Z" fill="url(#paint0_linear_0_331)"/>
    <defs>
        <linearGradient id="paint0_linear_0_331" x1="-713.94" y1="402.409" x2="2150.67" y2="434.393" gradientUnits="userSpaceOnUse">
            <stop stop-color="#4B4B4B" stop-opacity="0.2"/>
            <stop offset="0.48" stop-color="#4B4B4B"/>
            <stop offset="1" stop-color="#4B4B4B" stop-opacity="0.2"/>
        </linearGradient>
    </defs>
</svg>
